<svg xmlns="http://www.w3.org/2000/svg" baseProfile="full" viewBox="0 0 3840 3840"><path fill="#020401" d="M1800 640h40v40h-40zm40 0h40v40h-40zm40 0h40v40h-40z"/><path fill="#767c7f" d="M1760 680h40v40h-40zm40 0h40v40h-40zm40 0h40v40h-40zm40 0h40v40h-40zm40 0h40v40h-40z"/><path fill="#020401" d="M1760 720h40v40h-40z"/><path fill="#fff" d="M1800 720h40v40h-40zm40 0h40v40h-40z"/><path fill="#cbdbff" d="M1880 720h40v40h-40z"/><path fill="#020401" d="M1920 720h40v40h-40z"/><path fill="#767c7f" d="M1680 760h40v40h-40z"/><path fill="#020401" d="M1720 760h40v40h-40z"/><path fill="#cbdbff" d="M1760 760h40v40h-40z"/><path fill="#fff" d="M1800 760h40v40h-40zm40 0h40v40h-40zm40 0h40v40h-40zm40 0h40v40h-40z"/><path fill="#020401" d="M1960 760h40v40h-40z"/><path fill="#767c7f" d="M2000 760h40v40h-40z"/><path fill="#020401" d="M1640 800h40v40h-40z"/><path fill="#767c7f" d="M1680 800h40v40h-40z"/><path fill="#cbdbff" d="M1720 800h40v40h-40z"/><path fill="#fff" d="M1760 800h40v40h-40zm40 0h40v40h-40zm40 0h40v40h-40zm40 0h40v40h-40zm40 0h40v40h-40z"/><path fill="#cbdbff" d="M1960 800h40v40h-40z"/><path fill="#fff" d="M2000 800h40v40h-40z"/><path fill="#020401" d="M2040 800h40v40h-40zm-400 40h40v40h-40z"/><path fill="#cbdbff" d="M1720 840h40v40h-40z"/><path fill="#fff" d="M1760 840h40v40h-40zm40 0h40v40h-40zm40 0h40v40h-40zm40 0h40v40h-40zm40 0h40v40h-40z"/><path fill="#cbdbff" d="M1960 840h40v40h-40z"/><path fill="#fff" d="M2000 840h40v40h-40z"/><path fill="#020401" d="M2040 840h40v40h-40zm-400 40h40v40h-40z"/><path fill="#cbdbff" d="M1680 880h40v40h-40z"/><path fill="#fff" d="M1720 880h40v40h-40zm40 0h40v40h-40zm40 0h40v40h-40zm40 0h40v40h-40zm40 0h40v40h-40zm40 0h40v40h-40zm40 0h40v40h-40z"/><path fill="#cbdbff" d="M2000 880h40v40h-40z"/><path fill="#020401" d="M2040 880h40v40h-40zm-400 40h40v40h-40z"/><path fill="#767c7f" d="M1680 920h40v40h-40z"/><path fill="#cbdbff" d="M1720 920h40v40h-40z"/><path fill="#fff" d="M1760 920h40v40h-40zm40 0h40v40h-40zm40 0h40v40h-40zm40 0h40v40h-40zm40 0h40v40h-40z"/><path fill="#cbdbff" d="M1960 920h40v40h-40z"/><path fill="#767c7f" d="M2000 920h40v40h-40z"/><path fill="#020401" d="M2040 920h40v40h-40z"/><path fill="#767c7f" d="M1680 960h40v40h-40zm40 0h40v40h-40z"/><path fill="#cbdbff" d="M1760 960h40v40h-40z"/><path fill="#fff" d="M1800 960h40v40h-40zm40 0h40v40h-40zm40 0h40v40h-40z"/><path fill="#cbdbff" d="M1920 960h40v40h-40z"/><path fill="#767c7f" d="M2000 960h40v40h-40zm40 0h40v40h-40zm-360 40h40v40h-40z"/><path fill="#020401" d="M1720 1000h40v40h-40z"/><path fill="#cbdbff" d="M1760 1000h40v40h-40z"/><path fill="#767c7f" d="M1800 1000h40v40h-40zm40 0h40v40h-40zm40 0h40v40h-40z"/><path fill="#cbdbff" d="M1920 1000h40v40h-40z"/><path fill="#020401" d="M1960 1000h40v40h-40z"/><path fill="#767c7f" d="M2000 1000h40v40h-40z"/><path fill="#020401" d="M1640 1040h40v40h-40zm40 0h40v40h-40zm40 0h40v40h-40z"/><path fill="#767c7f" d="M1760 1040h40v40h-40zm40 0h40v40h-40z"/><path fill="#fff" d="M1840 1040h40v40h-40z"/><path fill="#767c7f" d="M1880 1040h40v40h-40zm40 0h40v40h-40z"/><path fill="#020401" d="M1960 1040h40v40h-40zm40 0h40v40h-40zm40 0h40v40h-40zm-440 40h40v40h-40z"/><path fill="#fff" d="M1640 1080h40v40h-40zm40 0h40v40h-40z"/><path fill="#767c7f" d="M1720 1080h40v40h-40z"/><path fill="#fff" d="M1760 1080h40v40h-40zm40 0h40v40h-40zm40 0h40v40h-40zm40 0h40v40h-40zm40 0h40v40h-40z"/><path fill="#767c7f" d="M1960 1080h40v40h-40z"/><path fill="#fff" d="M2000 1080h40v40h-40z"/><path fill="#cbdbff" d="M2040 1080h40v40h-40z"/><path fill="#020401" d="M2080 1080h40v40h-40z"/><path fill="#767c7f" d="M1480 1120h40v40h-40zm40 0h40v40h-40zm40 0h40v40h-40zm40 0h40v40h-40z"/><path fill="#fff" d="M1640 1120h40v40h-40zm40 0h40v40h-40zm40 0h40v40h-40zm40 0h40v40h-40zm40 0h40v40h-40zm40 0h40v40h-40zm40 0h40v40h-40zm40 0h40v40h-40zm40 0h40v40h-40zm40 0h40v40h-40z"/><path fill="#cbdbff" d="M2040 1120h40v40h-40z"/><path fill="#767c7f" d="M2080 1120h40v40h-40zm40 0h40v40h-40zm40 0h40v40h-40zm40 0h40v40h-40zm880 0h40v40h-40zm40 0h40v40h-40zm40 0h40v40h-40z"/><path fill="#020401" d="M1480 1160h40v40h-40zm40 0h40v40h-40zm40 0h40v40h-40z"/><path fill="#cbdbff" d="M1600 1160h40v40h-40z"/><path fill="#fff" d="M1640 1160h40v40h-40zm40 0h40v40h-40zm40 0h40v40h-40zm40 0h40v40h-40zm40 0h40v40h-40zm40 0h40v40h-40zm40 0h40v40h-40zm40 0h40v40h-40zm40 0h40v40h-40zm40 0h40v40h-40zm40 0h40v40h-40zm40 0h40v40h-40z"/><path fill="#020401" d="M2120 1160h40v40h-40zm40 0h40v40h-40zm40 0h40v40h-40z"/><path fill="#767c7f" d="M3080 1160h40v40h-40z"/><path fill="#020401" d="M3120 1160h40v40h-40zm40 0h40v40h-40zm40 0h40v40h-40zm40 0h40v40h-40zm40 0h40v40h-40zm40 0h40v40h-40zm40 0h40v40h-40zm40 0h40v40h-40zm-2120 40h40v40h-40zm40 0h40v40h-40zm40 0h40v40h-40zm40 0h40v40h-40zm40 0h40v40h-40z"/><path fill="#cbdbff" d="M1480 1200h40v40h-40zm40 0h40v40h-40z"/><path fill="#fff" d="M1560 1200h40v40h-40zm40 0h40v40h-40zm40 0h40v40h-40zm40 0h40v40h-40zm40 0h40v40h-40zm40 0h40v40h-40zm40 0h40v40h-40zm40 0h40v40h-40zm40 0h40v40h-40zm40 0h40v40h-40zm40 0h40v40h-40zm40 0h40v40h-40zm40 0h40v40h-40zm40 0h40v40h-40zm40 0h40v40h-40zm40 0h40v40h-40z"/><path fill="#cbdbff" d="M2200 1200h40v40h-40z"/><path fill="#020401" d="M2240 1200h40v40h-40zm40 0h40v40h-40zm40 0h40v40h-40zm40 0h40v40h-40zm40 0h40v40h-40z"/><path fill="#767c7f" d="M2440 1200h40v40h-40z"/><path fill="#020401" d="M3000 1200h40v40h-40zm40 0h40v40h-40zm40 0h40v40h-40z"/><path fill="#cbdbff" d="M3120 1200h40v40h-40z"/><path fill="#fff" d="M3160 1200h40v40h-40zm40 0h40v40h-40zm40 0h40v40h-40zm40 0h40v40h-40zm40 0h40v40h-40zm40 0h40v40h-40zm40 0h40v40h-40z"/><path fill="#020401" d="M3440 1200h40v40h-40zm40 0h40v40h-40zm40 0h40v40h-40zm40 0h40v40h-40zm-2440 40h40v40h-40zm40 0h40v40h-40zm40 0h40v40h-40zm40 0h40v40h-40z"/><path fill="#fff" d="M1280 1240h40v40h-40z"/><path fill="#767c7f" d="M1320 1240h40v40h-40z"/><path fill="#fff" d="M1360 1240h40v40h-40z"/><path fill="#cbdbff" d="M1400 1240h40v40h-40z"/><path fill="#fff" d="M1440 1240h40v40h-40zm40 0h40v40h-40zm40 0h40v40h-40zm40 0h40v40h-40zm40 0h40v40h-40zm40 0h40v40h-40zm40 0h40v40h-40zm40 0h40v40h-40zm40 0h40v40h-40zm40 0h40v40h-40zm40 0h40v40h-40zm40 0h40v40h-40zm40 0h40v40h-40zm40 0h40v40h-40zm40 0h40v40h-40zm40 0h40v40h-40zm40 0h40v40h-40zm40 0h40v40h-40zm40 0h40v40h-40zm40 0h40v40h-40z"/><path fill="#cbdbff" d="M2240 1240h40v40h-40zm40 0h40v40h-40z"/><path fill="#767c7f" d="M2320 1240h40v40h-40z"/><path fill="#020401" d="M2360 1240h40v40h-40z"/><path fill="#fff" d="M2400 1240h40v40h-40zm40 0h40v40h-40z"/><path fill="#020401" d="M2480 1240h40v40h-40zm40 0h40v40h-40zm40 0h40v40h-40z"/><path fill="#767c7f" d="M2600 1240h40v40h-40zm320 0h40v40h-40z"/><path fill="#020401" d="M2960 1240h40v40h-40z"/><path fill="#fff" d="M3000 1240h40v40h-40zm40 0h40v40h-40zm40 0h40v40h-40zm40 0h40v40h-40z"/><path fill="#e4e4e4" d="M3160 1240h40v40h-40zm40 0h40v40h-40zm40 0h40v40h-40zm40 0h40v40h-40z"/><path fill="#fff" d="M3320 1240h40v40h-40zm40 0h40v40h-40zm40 0h40v40h-40zm40 0h40v40h-40zm40 0h40v40h-40zm40 0h40v40h-40z"/><path fill="#767c7f" d="M3560 1240h40v40h-40z"/><path fill="#020401" d="M3600 1240h40v40h-40z"/><path fill="#767c7f" d="M1040 1280h40v40h-40zm40 0h40v40h-40zm40 0h40v40h-40zm40 0h40v40h-40zm40 0h40v40h-40zm80 0h40v40h-40zm40 0h40v40h-40z"/><path fill="#cbdbff" d="M1360 1280h40v40h-40zm40 0h40v40h-40z"/><path fill="#fff" d="M1440 1280h40v40h-40zm40 0h40v40h-40zm40 0h40v40h-40zm40 0h40v40h-40zm40 0h40v40h-40zm40 0h40v40h-40zm40 0h40v40h-40zm40 0h40v40h-40zm40 0h40v40h-40zm40 0h40v40h-40zm40 0h40v40h-40zm40 0h40v40h-40zm40 0h40v40h-40zm40 0h40v40h-40zm40 0h40v40h-40zm40 0h40v40h-40zm40 0h40v40h-40zm40 0h40v40h-40zm40 0h40v40h-40zm40 0h40v40h-40zm40 0h40v40h-40z"/><path fill="#cbdbff" d="M2280 1280h40v40h-40z"/><path fill="#767c7f" d="M2320 1280h40v40h-40z"/><path fill="#020401" d="M2360 1280h40v40h-40zm40 0h40v40h-40z"/><path fill="#cbdbff" d="M2440 1280h40v40h-40z"/><path fill="#767c7f" d="M2480 1280h40v40h-40zm40 0h40v40h-40zm40 0h40v40h-40zm40 0h40v40h-40zm40 0h40v40h-40zm240 0h40v40h-40zm40 0h40v40h-40zm40 0h40v40h-40z"/><path fill="#fff" d="M3000 1280h40v40h-40zm40 0h40v40h-40zm40 0h40v40h-40z"/><path fill="#e4e4e4" d="M3120 1280h40v40h-40z"/><path fill="#fff" d="M3160 1280h40v40h-40zm40 0h40v40h-40zm40 0h40v40h-40zm40 0h40v40h-40zm40 0h40v40h-40z"/><path fill="#cbdbff" d="M3360 1280h40v40h-40z"/><path fill="#fff" d="M3400 1280h40v40h-40zm40 0h40v40h-40zm40 0h40v40h-40z"/><path fill="#767c7f" d="M3520 1280h40v40h-40zm40 0h40v40h-40zm40 0h40v40h-40z"/><path fill="#020401" d="M1040 1320h40v40h-40zm40 0h40v40h-40z"/><path fill="#cbdbff" d="M1160 1320h40v40h-40zm40 0h40v40h-40zm40 0h40v40h-40z"/><path fill="#020401" d="M1280 1320h40v40h-40z"/><path fill="#767c7f" d="M1320 1320h40v40h-40z"/><path fill="#cbdbff" d="M1360 1320h40v40h-40z"/><path fill="#fff" d="M1400 1320h40v40h-40zm40 0h40v40h-40zm40 0h40v40h-40zm40 0h40v40h-40zm40 0h40v40h-40zm40 0h40v40h-40zm40 0h40v40h-40zm40 0h40v40h-40zm40 0h40v40h-40zm40 0h40v40h-40zm40 0h40v40h-40zm40 0h40v40h-40zm40 0h40v40h-40zm40 0h40v40h-40zm40 0h40v40h-40zm40 0h40v40h-40zm40 0h40v40h-40zm40 0h40v40h-40zm40 0h40v40h-40zm40 0h40v40h-40zm40 0h40v40h-40zm40 0h40v40h-40zm40 0h40v40h-40z"/><path fill="#cbdbff" d="M2320 1320h40v40h-40z"/><path fill="#767c7f" d="M2360 1320h40v40h-40z"/><path fill="#020401" d="M2400 1320h40v40h-40zm40 0h40v40h-40z"/><path fill="#cbdbff" d="M2480 1320h40v40h-40zm40 0h40v40h-40z"/><path fill="#fff" d="M2560 1320h40v40h-40z"/><path fill="#767c7f" d="M2600 1320h40v40h-40z"/><path fill="#020401" d="M2640 1320h40v40h-40zm240 0h40v40h-40z"/><path fill="#767c7f" d="M2920 1320h40v40h-40z"/><path fill="#cbdbff" d="M2960 1320h40v40h-40z"/><path fill="#fff" d="M3000 1320h40v40h-40zm40 0h40v40h-40z"/><path fill="#cbdbff" d="M3080 1320h40v40h-40z"/><path fill="#767c7f" d="M3120 1320h40v40h-40z"/><path fill="#020401" d="M3160 1320h40v40h-40zm40 0h40v40h-40zm40 0h40v40h-40zm40 0h40v40h-40zm40 0h40v40h-40z"/><path fill="#cbdbff" d="M3360 1320h40v40h-40zm40 0h40v40h-40z"/><path fill="#fff" d="M3440 1320h40v40h-40zm40 0h40v40h-40zm40 0h40v40h-40z"/><path fill="#020401" d="M3560 1320h40v40h-40zm-2560 40h40v40h-40z"/><path fill="#fff" d="M1040 1360h40v40h-40zm40 0h40v40h-40z"/><path fill="#cbdbff" d="M1120 1360h40v40h-40zm40 0h40v40h-40z"/><path fill="#fff" d="M1200 1360h40v40h-40zm40 0h40v40h-40z"/><path fill="#020401" d="M1280 1360h40v40h-40z"/><path fill="#fff" d="M1320 1360h40v40h-40zm40 0h40v40h-40zm40 0h40v40h-40zm40 0h40v40h-40zm40 0h40v40h-40zm40 0h40v40h-40zm40 0h40v40h-40zm40 0h40v40h-40zm40 0h40v40h-40zm40 0h40v40h-40zm40 0h40v40h-40zm40 0h40v40h-40zm40 0h40v40h-40zm40 0h40v40h-40zm40 0h40v40h-40zm40 0h40v40h-40zm40 0h40v40h-40zm40 0h40v40h-40zm40 0h40v40h-40zm40 0h40v40h-40zm40 0h40v40h-40zm40 0h40v40h-40zm40 0h40v40h-40zm40 0h40v40h-40zm40 0h40v40h-40zm40 0h40v40h-40zm40 0h40v40h-40zm40 0h40v40h-40z"/><path fill="#020401" d="M2440 1360h40v40h-40z"/><path fill="#767c7f" d="M2480 1360h40v40h-40z"/><path fill="#cbdbff" d="M2520 1360h40v40h-40zm40 0h40v40h-40z"/><path fill="#fff" d="M2600 1360h40v40h-40zm40 0h40v40h-40z"/><path fill="#020401" d="M2680 1360h40v40h-40zm200 0h40v40h-40z"/><path fill="#fff" d="M2920 1360h40v40h-40zm40 0h40v40h-40zm40 0h40v40h-40z"/><path fill="#cbdbff" d="M3040 1360h40v40h-40z"/><path fill="#767c7f" d="M3080 1360h40v40h-40z"/><path fill="#020401" d="M3120 1360h40v40h-40zm240 0h40v40h-40zm40 0h40v40h-40zm40 0h40v40h-40z"/><path fill="#767c7f" d="M3480 1360h40v40h-40z"/><path fill="#fff" d="M3520 1360h40v40h-40zm40 0h40v40h-40z"/><path fill="#020401" d="M3600 1360h40v40h-40zm-3360 40h40v40h-40zm40 0h40v40h-40zm40 0h40v40h-40zm640 0h40v40h-40z"/><path fill="#fff" d="M1000 1400h40v40h-40zm40 0h40v40h-40z"/><path fill="#cbdbff" d="M1080 1400h40v40h-40zm40 0h40v40h-40z"/><path fill="#fff" d="M1160 1400h40v40h-40zm40 0h40v40h-40z"/><path fill="#767c7f" d="M1240 1400h40v40h-40z"/><path fill="#020401" d="M1280 1400h40v40h-40z"/><path fill="#fff" d="M1320 1400h40v40h-40zm40 0h40v40h-40zm40 0h40v40h-40zm40 0h40v40h-40zm40 0h40v40h-40zm40 0h40v40h-40zm40 0h40v40h-40zm40 0h40v40h-40zm40 0h40v40h-40zm40 0h40v40h-40zm40 0h40v40h-40zm40 0h40v40h-40zm40 0h40v40h-40zm40 0h40v40h-40zm40 0h40v40h-40zm40 0h40v40h-40zm40 0h40v40h-40zm40 0h40v40h-40zm40 0h40v40h-40zm40 0h40v40h-40zm40 0h40v40h-40zm40 0h40v40h-40zm40 0h40v40h-40zm40 0h40v40h-40zm40 0h40v40h-40zm40 0h40v40h-40zm40 0h40v40h-40zm40 0h40v40h-40zm40 0h40v40h-40z"/><path fill="#020401" d="M2480 1400h40v40h-40z"/><path fill="#767c7f" d="M2520 1400h40v40h-40z"/><path fill="#cbdbff" d="M2560 1400h40v40h-40zm40 0h40v40h-40z"/><path fill="#fff" d="M2640 1400h40v40h-40zm40 0h40v40h-40z"/><path fill="#020401" d="M2720 1400h40v40h-40zm160 0h40v40h-40z"/><path fill="#fff" d="M2920 1400h40v40h-40zm40 0h40v40h-40zm40 0h40v40h-40z"/><path fill="#020401" d="M3040 1400h40v40h-40z"/><path fill="#767c7f" d="M3080 1400h40v40h-40z"/><path fill="#020401" d="M3480 1400h40v40h-40z"/><path fill="#fff" d="M3520 1400h40v40h-40zm40 0h40v40h-40zm40 0h40v40h-40z"/><path fill="#020401" d="M3640 1400h40v40h-40z"/><path fill="#767c7f" d="M3680 1400h40v40h-40zm-3480 40h40v40h-40zm40 0h40v40h-40z"/><path fill="#fff" d="M280 1440h40v40h-40z"/><path fill="#767c7f" d="M320 1440h40v40h-40zm40 0h40v40h-40z"/><path fill="#020401" d="M960 1440h40v40h-40z"/><path fill="#fff" d="M1000 1440h40v40h-40zm40 0h40v40h-40z"/><path fill="#cbdbff" d="M1080 1440h40v40h-40z"/><path fill="#fff" d="M1120 1440h40v40h-40z"/><path fill="#767c7f" d="M1160 1440h40v40h-40z"/><path fill="#020401" d="M1200 1440h40v40h-40z"/><path fill="#767c7f" d="M1240 1440h40v40h-40z"/><path fill="#fff" d="M1280 1440h40v40h-40zm40 0h40v40h-40zm40 0h40v40h-40zm40 0h40v40h-40zm40 0h40v40h-40zm40 0h40v40h-40zm40 0h40v40h-40zm40 0h40v40h-40zm40 0h40v40h-40zm40 0h40v40h-40zm40 0h40v40h-40zm40 0h40v40h-40zm40 0h40v40h-40zm40 0h40v40h-40zm40 0h40v40h-40zm40 0h40v40h-40zm40 0h40v40h-40zm40 0h40v40h-40zm40 0h40v40h-40zm40 0h40v40h-40zm40 0h40v40h-40zm40 0h40v40h-40zm40 0h40v40h-40zm40 0h40v40h-40zm40 0h40v40h-40zm40 0h40v40h-40zm40 0h40v40h-40zm40 0h40v40h-40zm40 0h40v40h-40zm40 0h40v40h-40z"/><path fill="#767c7f" d="M2480 1440h40v40h-40zm40 0h40v40h-40z"/><path fill="#cbdbff" d="M2560 1440h40v40h-40zm40 0h40v40h-40z"/><path fill="#fff" d="M2640 1440h40v40h-40zm40 0h40v40h-40z"/><path fill="#020401" d="M2720 1440h40v40h-40z"/><path fill="#767c7f" d="M2840 1440h40v40h-40zm40 0h40v40h-40z"/><path fill="#fff" d="M2920 1440h40v40h-40z"/><path fill="#e4e4e4" d="M2960 1440h40v40h-40z"/><path fill="#fff" d="M3000 1440h40v40h-40z"/><path fill="#020401" d="M3040 1440h40v40h-40z"/><path fill="#767c7f" d="M3520 1440h40v40h-40z"/><path fill="#cbdbff" d="M3560 1440h40v40h-40z"/><path fill="#fff" d="M3600 1440h40v40h-40z"/><path fill="#cbdbff" d="M3640 1440h40v40h-40z"/><path fill="#767c7f" d="M3680 1440h40v40h-40zm40 0h40v40h-40z"/><path fill="#020401" d="M160 1480h40v40h-40zm40 0h40v40h-40z"/><path fill="#fff" d="M240 1480h40v40h-40zm40 0h40v40h-40zm40 0h40v40h-40z"/><path fill="#020401" d="M360 1480h40v40h-40zm40 0h40v40h-40z"/><path fill="#767c7f" d="M440 1480h40v40h-40z"/><path fill="#020401" d="M960 1480h40v40h-40z"/><path fill="#fff" d="M1000 1480h40v40h-40zm40 0h40v40h-40z"/><path fill="#cbdbff" d="M1080 1480h40v40h-40zm40 0h40v40h-40z"/><path fill="#020401" d="M1160 1480h40v40h-40zm40 0h40v40h-40z"/><path fill="#fff" d="M1240 1480h40v40h-40zm40 0h40v40h-40zm40 0h40v40h-40zm40 0h40v40h-40zm40 0h40v40h-40zm40 0h40v40h-40zm40 0h40v40h-40zm40 0h40v40h-40zm40 0h40v40h-40zm40 0h40v40h-40zm40 0h40v40h-40zm40 0h40v40h-40zm40 0h40v40h-40zm40 0h40v40h-40zm40 0h40v40h-40zm40 0h40v40h-40zm40 0h40v40h-40zm40 0h40v40h-40zm40 0h40v40h-40zm40 0h40v40h-40zm40 0h40v40h-40zm40 0h40v40h-40zm40 0h40v40h-40zm40 0h40v40h-40zm40 0h40v40h-40zm40 0h40v40h-40zm40 0h40v40h-40zm40 0h40v40h-40zm40 0h40v40h-40zm40 0h40v40h-40zm40 0h40v40h-40zm40 0h40v40h-40z"/><path fill="#767c7f" d="M2520 1480h40v40h-40z"/><path fill="#cbdbff" d="M2560 1480h40v40h-40zm40 0h40v40h-40zm40 0h40v40h-40z"/><path fill="#fff" d="M2680 1480h40v40h-40z"/><path fill="#020401" d="M2720 1480h40v40h-40zm120 0h40v40h-40z"/><path fill="#cbdbff" d="M2880 1480h40v40h-40zm40 0h40v40h-40z"/><path fill="#fff" d="M2960 1480h40v40h-40zm40 0h40v40h-40z"/><path fill="#020401" d="M3040 1480h40v40h-40zm520 0h40v40h-40z"/><path fill="#cbdbff" d="M3600 1480h40v40h-40zm40 0h40v40h-40z"/><path fill="#767c7f" d="M3680 1480h40v40h-40z"/><path fill="#020401" d="M3720 1480h40v40h-40zM80 1520h40v40H80zm40 0h40v40h-40z"/><path fill="#fff" d="M160 1520h40v40h-40zm40 0h40v40h-40zm40 0h40v40h-40zm40 0h40v40h-40z"/><path fill="#e4e4e4" d="M320 1520h40v40h-40z"/><path fill="#fff" d="M360 1520h40v40h-40zm40 0h40v40h-40z"/><path fill="#767c7f" d="M440 1520h40v40h-40z"/><path fill="#020401" d="M480 1520h40v40h-40zm480 0h40v40h-40z"/><path fill="#767c7f" d="M1000 1520h40v40h-40z"/><path fill="#fff" d="M1040 1520h40v40h-40zm40 0h40v40h-40z"/><path fill="#cbdbff" d="M1120 1520h40v40h-40z"/><path fill="#020401" d="M1160 1520h40v40h-40z"/><path fill="#767c7f" d="M1200 1520h40v40h-40z"/><path fill="#cbdbff" d="M1240 1520h40v40h-40z"/><path fill="#fff" d="M1280 1520h40v40h-40zm40 0h40v40h-40zm40 0h40v40h-40zm40 0h40v40h-40zm40 0h40v40h-40zm40 0h40v40h-40zm40 0h40v40h-40zm40 0h40v40h-40zm40 0h40v40h-40zm40 0h40v40h-40zm40 0h40v40h-40zm40 0h40v40h-40zm40 0h40v40h-40zm40 0h40v40h-40zm40 0h40v40h-40zm40 0h40v40h-40zm40 0h40v40h-40zm40 0h40v40h-40zm40 0h40v40h-40zm40 0h40v40h-40zm40 0h40v40h-40zm40 0h40v40h-40zm40 0h40v40h-40zm40 0h40v40h-40zm40 0h40v40h-40zm40 0h40v40h-40zm40 0h40v40h-40zm40 0h40v40h-40zm40 0h40v40h-40z"/><path fill="#cbdbff" d="M2440 1520h40v40h-40zm40 0h40v40h-40z"/><path fill="#020401" d="M2560 1520h40v40h-40z"/><path fill="#fff" d="M2600 1520h40v40h-40z"/><path fill="#020401" d="M2640 1520h40v40h-40z"/><path fill="#fff" d="M2680 1520h40v40h-40z"/><path fill="#020401" d="M2720 1520h40v40h-40zm120 0h40v40h-40z"/><path fill="#cbdbff" d="M2880 1520h40v40h-40zm40 0h40v40h-40zm40 0h40v40h-40z"/><path fill="#fff" d="M3000 1520h40v40h-40z"/><path fill="#020401" d="M3040 1520h40v40h-40z"/><path fill="#767c7f" d="M3080 1520h40v40h-40z"/><path fill="#020401" d="M3560 1520h40v40h-40z"/><path fill="#cbdbff" d="M3600 1520h40v40h-40z"/><path fill="#fff" d="M3640 1520h40v40h-40zm40 0h40v40h-40z"/><path fill="#020401" d="M3720 1520h40v40h-40zM40 1560h40v40H40z"/><path fill="#fff" d="M80 1560h40v40H80zm40 0h40v40h-40zm40 0h40v40h-40zm40 0h40v40h-40z"/><path fill="#cbdbff" d="M240 1560h40v40h-40z"/><path fill="#fff" d="M280 1560h40v40h-40z"/><path fill="#e4e4e4" d="M320 1560h40v40h-40zm40 0h40v40h-40zm40 0h40v40h-40z"/><path fill="#fff" d="M440 1560h40v40h-40zm40 0h40v40h-40z"/><path fill="#020401" d="M520 1560h40v40h-40zm480 0h40v40h-40z"/><path fill="#fff" d="M1040 1560h40v40h-40zm40 0h40v40h-40z"/><path fill="#767c7f" d="M1120 1560h40v40h-40z"/><path fill="#020401" d="M1160 1560h40v40h-40z"/><path fill="#cbdbff" d="M1200 1560h40v40h-40zm40 0h40v40h-40zm40 0h40v40h-40z"/><path fill="#fff" d="M1320 1560h40v40h-40zm40 0h40v40h-40zm40 0h40v40h-40zm40 0h40v40h-40zm40 0h40v40h-40zm40 0h40v40h-40zm40 0h40v40h-40zm40 0h40v40h-40zm40 0h40v40h-40zm40 0h40v40h-40zm40 0h40v40h-40zm40 0h40v40h-40zm40 0h40v40h-40zm40 0h40v40h-40zm40 0h40v40h-40zm40 0h40v40h-40zm40 0h40v40h-40zm40 0h40v40h-40zm40 0h40v40h-40zm40 0h40v40h-40zm40 0h40v40h-40zm40 0h40v40h-40zm40 0h40v40h-40zm40 0h40v40h-40zm40 0h40v40h-40zm40 0h40v40h-40zm40 0h40v40h-40z"/><path fill="#cbdbff" d="M2400 1560h40v40h-40zm40 0h40v40h-40z"/><path fill="#767c7f" d="M2520 1560h40v40h-40z"/><path fill="#020401" d="M2560 1560h40v40h-40z"/><path fill="#fff" d="M2600 1560h40v40h-40zm40 0h40v40h-40z"/><path fill="#020401" d="M2680 1560h40v40h-40zm200 0h40v40h-40z"/><path fill="#fff" d="M2920 1560h40v40h-40z"/><path fill="#cbdbff" d="M2960 1560h40v40h-40zm40 0h40v40h-40z"/><path fill="#020401" d="M3040 1560h40v40h-40z"/><path fill="#767c7f" d="M3080 1560h40v40h-40z"/><path fill="#020401" d="M3600 1560h40v40h-40z"/><path fill="#fff" d="M3640 1560h40v40h-40zm40 0h40v40h-40z"/><path fill="#e4e4e4" d="M3720 1560h40v40h-40z"/><path fill="#020401" d="M3760 1560h40v40h-40zM40 1600h40v40H40z"/><path fill="#fff" d="M80 1600h40v40H80zm40 0h40v40h-40zm40 0h40v40h-40zm40 0h40v40h-40z"/><path fill="#cbdbff" d="M240 1600h40v40h-40zm40 0h40v40h-40z"/><path fill="#fff" d="M320 1600h40v40h-40z"/><path fill="#e4e4e4" d="M360 1600h40v40h-40z"/><path fill="#fff" d="M400 1600h40v40h-40zm40 0h40v40h-40zm40 0h40v40h-40z"/><path fill="#767c7f" d="M520 1600h40v40h-40zm40 0h40v40h-40z"/><path fill="#020401" d="M1000 1600h40v40h-40z"/><path fill="#767c7f" d="M1040 1600h40v40h-40z"/><path fill="#fff" d="M1080 1600h40v40h-40z"/><path fill="#767c7f" d="M1120 1600h40v40h-40z"/><path fill="#020401" d="M1160 1600h40v40h-40z"/><path fill="#767c7f" d="M1200 1600h40v40h-40z"/><path fill="#cbdbff" d="M1280 1600h40v40h-40z"/><path fill="#fff" d="M1320 1600h40v40h-40zm40 0h40v40h-40zm40 0h40v40h-40zm40 0h40v40h-40zm40 0h40v40h-40zm40 0h40v40h-40zm40 0h40v40h-40zm40 0h40v40h-40zm40 0h40v40h-40zm40 0h40v40h-40zm40 0h40v40h-40zm40 0h40v40h-40zm40 0h40v40h-40zm40 0h40v40h-40zm40 0h40v40h-40zm40 0h40v40h-40zm40 0h40v40h-40zm40 0h40v40h-40zm40 0h40v40h-40zm40 0h40v40h-40zm40 0h40v40h-40zm40 0h40v40h-40zm40 0h40v40h-40zm40 0h40v40h-40zm40 0h40v40h-40zm40 0h40v40h-40zm40 0h40v40h-40z"/><path fill="#cbdbff" d="M2400 1600h40v40h-40zm40 0h40v40h-40zm40 0h40v40h-40z"/><path fill="#767c7f" d="M2520 1600h40v40h-40zm40 0h40v40h-40z"/><path fill="#fff" d="M2600 1600h40v40h-40zm40 0h40v40h-40z"/><path fill="#020401" d="M2680 1600h40v40h-40z"/><path fill="#767c7f" d="M2840 1600h40v40h-40zm40 0h40v40h-40z"/><path fill="#fff" d="M2920 1600h40v40h-40zm40 0h40v40h-40z"/><path fill="#767c7f" d="M3000 1600h40v40h-40zm40 0h40v40h-40zm40 0h40v40h-40z"/><path fill="#020401" d="M3600 1600h40v40h-40z"/><path fill="#fff" d="M3640 1600h40v40h-40z"/><path fill="#e4e4e4" d="M3680 1600h40v40h-40zm40 0h40v40h-40z"/><path fill="#020401" d="M3760 1600h40v40h-40zM40 1640h40v40H40zm40 0h40v40H80zm40 0h40v40h-40zm40 0h40v40h-40zm40 0h40v40h-40z"/><path fill="#cbdbff" d="M280 1640h40v40h-40zm40 0h40v40h-40z"/><path fill="#fff" d="M360 1640h40v40h-40zm40 0h40v40h-40z"/><path fill="#cbdbff" d="M440 1640h40v40h-40zm40 0h40v40h-40z"/><path fill="#020401" d="M560 1640h40v40h-40z"/><path fill="#767c7f" d="M600 1640h40v40h-40z"/><path fill="#020401" d="M1000 1640h40v40h-40z"/><path fill="#767c7f" d="M1040 1640h40v40h-40zm40 0h40v40h-40zm80 0h40v40h-40z"/><path fill="#020401" d="M1200 1640h40v40h-40zm40 0h40v40h-40z"/><path fill="#cbdbff" d="M1280 1640h40v40h-40zm40 0h40v40h-40zm40 0h40v40h-40z"/><path fill="#767c7f" d="M1400 1640h40v40h-40z"/><path fill="#cbdbff" d="M1440 1640h40v40h-40zm40 0h40v40h-40z"/><path fill="#fff" d="M1520 1640h40v40h-40zm40 0h40v40h-40zm40 0h40v40h-40zm40 0h40v40h-40zm40 0h40v40h-40zm40 0h40v40h-40zm40 0h40v40h-40zm40 0h40v40h-40zm40 0h40v40h-40zm40 0h40v40h-40zm40 0h40v40h-40zm40 0h40v40h-40zm40 0h40v40h-40zm40 0h40v40h-40zm40 0h40v40h-40zm40 0h40v40h-40zm40 0h40v40h-40zm40 0h40v40h-40zm40 0h40v40h-40z"/><path fill="#767c7f" d="M2280 1640h40v40h-40z"/><path fill="#cbdbff" d="M2320 1640h40v40h-40zm40 0h40v40h-40z"/><path fill="#767c7f" d="M2440 1640h40v40h-40zm40 0h40v40h-40z"/><path fill="#020401" d="M2520 1640h40v40h-40z"/><path fill="#fff" d="M2560 1640h40v40h-40zm40 0h40v40h-40zm40 0h40v40h-40z"/><path fill="#020401" d="M2680 1640h40v40h-40zm160 0h40v40h-40z"/><path fill="#fff" d="M2880 1640h40v40h-40z"/><path fill="#e4e4e4" d="M2920 1640h40v40h-40z"/><path fill="#fff" d="M2960 1640h40v40h-40z"/><path fill="#020401" d="M3000 1640h40v40h-40z"/><path fill="#767c7f" d="M3040 1640h40v40h-40z"/><path fill="#020401" d="M3600 1640h40v40h-40z"/><path fill="#fff" d="M3640 1640h40v40h-40z"/><path fill="#e4e4e4" d="M3680 1640h40v40h-40zm40 0h40v40h-40z"/><path fill="#020401" d="M3760 1640h40v40h-40zm-3520 40h40v40h-40z"/><path fill="#767c7f" d="M280 1680h40v40h-40z"/><path fill="#cbdbff" d="M320 1680h40v40h-40z"/><path fill="#fff" d="M360 1680h40v40h-40zm40 0h40v40h-40zm40 0h40v40h-40zm40 0h40v40h-40z"/><path fill="#cbdbff" d="M520 1680h40v40h-40z"/><path fill="#020401" d="M560 1680h40v40h-40z"/><path fill="#767c7f" d="M600 1680h40v40h-40z"/><path fill="#020401" d="M1040 1680h40v40h-40zm40 0h40v40h-40z"/><path fill="#cbdbff" d="M1120 1680h40v40h-40z"/><path fill="#fff" d="M1160 1680h40v40h-40zm40 0h40v40h-40z"/><path fill="#767c7f" d="M1240 1680h40v40h-40z"/><path fill="#020401" d="M1280 1680h40v40h-40zm40 0h40v40h-40zm40 0h40v40h-40zm40 0h40v40h-40zm40 0h40v40h-40zm40 0h40v40h-40z"/><path fill="#767c7f" d="M1520 1680h40v40h-40z"/><path fill="#cbdbff" d="M1560 1680h40v40h-40zm40 0h40v40h-40zm40 0h40v40h-40zm40 0h40v40h-40z"/><path fill="#767c7f" d="M1720 1680h40v40h-40z"/><path fill="#020401" d="M1760 1680h40v40h-40zm40 0h40v40h-40zm40 0h40v40h-40zm40 0h40v40h-40zm40 0h40v40h-40z"/><path fill="#cbdbff" d="M1960 1680h40v40h-40zm40 0h40v40h-40zm40 0h40v40h-40zm40 0h40v40h-40zm40 0h40v40h-40z"/><path fill="#767c7f" d="M2160 1680h40v40h-40z"/><path fill="#020401" d="M2200 1680h40v40h-40zm40 0h40v40h-40zm40 0h40v40h-40zm40 0h40v40h-40zm40 0h40v40h-40zm40 0h40v40h-40z"/><path fill="#767c7f" d="M2440 1680h40v40h-40z"/><path fill="#fff" d="M2480 1680h40v40h-40zm40 0h40v40h-40zm40 0h40v40h-40z"/><path fill="#767c7f" d="M2600 1680h40v40h-40z"/><path fill="#020401" d="M2640 1680h40v40h-40z"/><path fill="#767c7f" d="M2760 1680h40v40h-40z"/><path fill="#020401" d="M2800 1680h40v40h-40z"/><path fill="#fff" d="M2840 1680h40v40h-40z"/><path fill="#e4e4e4" d="M2880 1680h40v40h-40zm40 0h40v40h-40z"/><path fill="#fff" d="M2960 1680h40v40h-40z"/><path fill="#020401" d="M3000 1680h40v40h-40zm600 0h40v40h-40z"/><path fill="#fff" d="M3640 1680h40v40h-40z"/><path fill="#e4e4e4" d="M3680 1680h40v40h-40z"/><path fill="#fff" d="M3720 1680h40v40h-40z"/><path fill="#020401" d="M3760 1680h40v40h-40z"/><path fill="#767c7f" d="M280 1720h40v40h-40z"/><path fill="#020401" d="M320 1720h40v40h-40z"/><path fill="#fff" d="M360 1720h40v40h-40z"/><path fill="#e4e4e4" d="M400 1720h40v40h-40z"/><path fill="#fff" d="M440 1720h40v40h-40zm40 0h40v40h-40z"/><path fill="#cbdbff" d="M520 1720h40v40h-40z"/><path fill="#767c7f" d="M600 1720h40v40h-40z"/><path fill="#020401" d="M640 1720h40v40h-40zm360 0h40v40h-40z"/><path fill="#767c7f" d="M1040 1720h40v40h-40z"/><path fill="#cbdbff" d="M1080 1720h40v40h-40zm40 0h40v40h-40z"/><path fill="#fff" d="M1160 1720h40v40h-40zm40 0h40v40h-40zm40 0h40v40h-40zm40 0h40v40h-40zm40 0h40v40h-40zm40 0h40v40h-40zm40 0h40v40h-40zm40 0h40v40h-40zm40 0h40v40h-40z"/><path fill="#767c7f" d="M1520 1720h40v40h-40z"/><path fill="#020401" d="M1560 1720h40v40h-40zm40 0h40v40h-40zm40 0h40v40h-40zm40 0h40v40h-40zm40 0h40v40h-40z"/><path fill="#767c7f" d="M1760 1720h40v40h-40z"/><path fill="#fff" d="M1800 1720h40v40h-40zm40 0h40v40h-40zm40 0h40v40h-40zm40 0h40v40h-40z"/><path fill="#020401" d="M1960 1720h40v40h-40zm40 0h40v40h-40zm40 0h40v40h-40zm40 0h40v40h-40zm40 0h40v40h-40zm40 0h40v40h-40z"/><path fill="#fff" d="M2200 1720h40v40h-40zm40 0h40v40h-40zm40 0h40v40h-40zm40 0h40v40h-40zm40 0h40v40h-40zm40 0h40v40h-40zm40 0h40v40h-40zm40 0h40v40h-40zm40 0h40v40h-40z"/><path fill="#cbdbff" d="M2560 1720h40v40h-40zm40 0h40v40h-40zm40 0h40v40h-40z"/><path fill="#020401" d="M2680 1720h40v40h-40zm40 0h40v40h-40z"/><path fill="#767c7f" d="M2760 1720h40v40h-40z"/><path fill="#fff" d="M2800 1720h40v40h-40zm40 0h40v40h-40z"/><path fill="#cbcbcb" d="M2880 1720h40v40h-40z"/><path fill="#fff" d="M2920 1720h40v40h-40zm40 0h40v40h-40z"/><path fill="#020401" d="M3000 1720h40v40h-40zm600 0h40v40h-40z"/><path fill="#fff" d="M3640 1720h40v40h-40z"/><path fill="#e4e4e4" d="M3680 1720h40v40h-40z"/><path fill="#fff" d="M3720 1720h40v40h-40z"/><path fill="#020401" d="M3760 1720h40v40h-40z"/><path fill="#767c7f" d="M280 1760h40v40h-40z"/><path fill="#020401" d="M320 1760h40v40h-40z"/><path fill="#fff" d="M360 1760h40v40h-40z"/><path fill="#e4e4e4" d="M400 1760h40v40h-40zm40 0h40v40h-40z"/><path fill="#fff" d="M480 1760h40v40h-40zm40 0h40v40h-40z"/><path fill="#cbdbff" d="M560 1760h40v40h-40z"/><path fill="#020401" d="M640 1760h40v40h-40zm360 0h40v40h-40z"/><path fill="#cbdbff" d="M1040 1760h40v40h-40zm40 0h40v40h-40zm40 0h40v40h-40z"/><path fill="#fff" d="M1160 1760h40v40h-40zm40 0h40v40h-40zm40 0h40v40h-40zm40 0h40v40h-40zm40 0h40v40h-40zm40 0h40v40h-40zm40 0h40v40h-40zm40 0h40v40h-40zm40 0h40v40h-40z"/><path fill="#767c7f" d="M1520 1760h40v40h-40zm40 0h40v40h-40zm40 0h40v40h-40z"/><path fill="#fff" d="M1640 1760h40v40h-40zm40 0h40v40h-40zm40 0h40v40h-40zm40 0h40v40h-40zm40 0h40v40h-40zm40 0h40v40h-40zm40 0h40v40h-40zm40 0h40v40h-40zm40 0h40v40h-40zm40 0h40v40h-40zm40 0h40v40h-40z"/><path fill="#767c7f" d="M2080 1760h40v40h-40zm40 0h40v40h-40zm40 0h40v40h-40z"/><path fill="#fff" d="M2200 1760h40v40h-40zm40 0h40v40h-40zm40 0h40v40h-40zm40 0h40v40h-40zm40 0h40v40h-40zm40 0h40v40h-40zm40 0h40v40h-40zm40 0h40v40h-40zm40 0h40v40h-40z"/><path fill="#cbdbff" d="M2560 1760h40v40h-40zm40 0h40v40h-40zm40 0h40v40h-40z"/><path fill="#020401" d="M2720 1760h40v40h-40z"/><path fill="#fff" d="M2760 1760h40v40h-40zm40 0h40v40h-40z"/><path fill="#e4e4e4" d="M2840 1760h40v40h-40zm40 0h40v40h-40z"/><path fill="#fff" d="M2920 1760h40v40h-40zm40 0h40v40h-40z"/><path fill="#020401" d="M3000 1760h40v40h-40zm600 0h40v40h-40z"/><path fill="#fff" d="M3640 1760h40v40h-40z"/><path fill="#e4e4e4" d="M3680 1760h40v40h-40z"/><path fill="#fff" d="M3720 1760h40v40h-40z"/><path fill="#020401" d="M3760 1760h40v40h-40zm-3440 40h40v40h-40z"/><path fill="#fff" d="M360 1800h40v40h-40zm40 0h40v40h-40z"/><path fill="#e4e4e4" d="M440 1800h40v40h-40z"/><path fill="#fff" d="M480 1800h40v40h-40z"/><path fill="#cbdbff" d="M520 1800h40v40h-40z"/><path fill="#020401" d="M640 1800h40v40h-40zm320 0h40v40h-40z"/><path fill="#767c7f" d="M1000 1800h40v40h-40z"/><path fill="#fff" d="M1040 1800h40v40h-40zm40 0h40v40h-40zm40 0h40v40h-40z"/><path fill="#cbdbff" d="M1160 1800h40v40h-40zm40 0h40v40h-40zm40 0h40v40h-40z"/><path fill="#fff" d="M1280 1800h40v40h-40zm40 0h40v40h-40zm40 0h40v40h-40zm40 0h40v40h-40zm40 0h40v40h-40zm40 0h40v40h-40zm40 0h40v40h-40zm40 0h40v40h-40zm40 0h40v40h-40zm40 0h40v40h-40zm40 0h40v40h-40zm40 0h40v40h-40zm40 0h40v40h-40zm40 0h40v40h-40zm40 0h40v40h-40zm40 0h40v40h-40zm40 0h40v40h-40zm40 0h40v40h-40zm40 0h40v40h-40zm40 0h40v40h-40zm40 0h40v40h-40zm40 0h40v40h-40zm40 0h40v40h-40zm40 0h40v40h-40zm40 0h40v40h-40zm40 0h40v40h-40zm40 0h40v40h-40zm40 0h40v40h-40zm40 0h40v40h-40zm40 0h40v40h-40z"/><path fill="#cbdbff" d="M2480 1800h40v40h-40zm40 0h40v40h-40zm40 0h40v40h-40zm40 0h40v40h-40zm40 0h40v40h-40zm40 0h40v40h-40z"/><path fill="#020401" d="M2720 1800h40v40h-40z"/><path fill="#767c7f" d="M2760 1800h40v40h-40z"/><path fill="#fff" d="M2800 1800h40v40h-40zm40 0h40v40h-40zm40 0h40v40h-40zm40 0h40v40h-40z"/><path fill="#020401" d="M2960 1800h40v40h-40zm640 0h40v40h-40z"/><path fill="#fff" d="M3640 1800h40v40h-40z"/><path fill="#e4e4e4" d="M3680 1800h40v40h-40z"/><path fill="#fff" d="M3720 1800h40v40h-40z"/><path fill="#020401" d="M3760 1800h40v40h-40zm-3440 40h40v40h-40z"/><path fill="#fff" d="M360 1840h40v40h-40zm40 0h40v40h-40z"/><path fill="#e6e6e6" d="M440 1840h40v40h-40z"/><path fill="#fff" d="M480 1840h40v40h-40zm40 0h40v40h-40z"/><path fill="#cbdbff" d="M560 1840h40v40h-40zm40 0h40v40h-40zm40 0h40v40h-40z"/><path fill="#020401" d="M680 1840h40v40h-40zm240 0h40v40h-40z"/><path fill="#767c7f" d="M960 1840h40v40h-40z"/><path fill="#fff" d="M1000 1840h40v40h-40zm40 0h40v40h-40zm40 0h40v40h-40zm40 0h40v40h-40zm40 0h40v40h-40zm40 0h40v40h-40zm40 0h40v40h-40z"/><path fill="#cbdbff" d="M1280 1840h40v40h-40zm40 0h40v40h-40zm40 0h40v40h-40z"/><path fill="#fff" d="M1400 1840h40v40h-40zm40 0h40v40h-40zm40 0h40v40h-40zm40 0h40v40h-40zm40 0h40v40h-40zm40 0h40v40h-40zm40 0h40v40h-40zm40 0h40v40h-40zm40 0h40v40h-40zm40 0h40v40h-40zm40 0h40v40h-40zm40 0h40v40h-40zm40 0h40v40h-40zm40 0h40v40h-40zm40 0h40v40h-40zm40 0h40v40h-40zm40 0h40v40h-40zm40 0h40v40h-40zm40 0h40v40h-40zm40 0h40v40h-40zm40 0h40v40h-40zm40 0h40v40h-40zm40 0h40v40h-40zm40 0h40v40h-40z"/><path fill="#cbdbff" d="M2360 1840h40v40h-40zm40 0h40v40h-40zm40 0h40v40h-40zm40 0h40v40h-40z"/><path fill="#fff" d="M2520 1840h40v40h-40zm40 0h40v40h-40zm40 0h40v40h-40zm40 0h40v40h-40z"/><path fill="#cbdbff" d="M2680 1840h40v40h-40zm40 0h40v40h-40z"/><path fill="#767c7f" d="M2760 1840h40v40h-40z"/><path fill="#020401" d="M2800 1840h40v40h-40z"/><path fill="#fff" d="M2840 1840h40v40h-40zm40 0h40v40h-40z"/><path fill="#767c7f" d="M2920 1840h40v40h-40z"/><path fill="#020401" d="M2960 1840h40v40h-40zm640 0h40v40h-40z"/><path fill="#e4e4e4" d="M3640 1840h40v40h-40z"/><path fill="#fff" d="M3680 1840h40v40h-40zm40 0h40v40h-40z"/><path fill="#020401" d="M3760 1840h40v40h-40zm-3440 40h40v40h-40z"/><path fill="#fff" d="M360 1880h40v40h-40zm40 0h40v40h-40zm40 0h40v40h-40z"/><path fill="#e4e4e4" d="M480 1880h40v40h-40z"/><path fill="#fff" d="M520 1880h40v40h-40zm40 0h40v40h-40z"/><path fill="#cbdbff" d="M600 1880h40v40h-40zm40 0h40v40h-40z"/><path fill="#020401" d="M680 1880h40v40h-40zm200 0h40v40h-40z"/><path fill="#767c7f" d="M920 1880h40v40h-40z"/><path fill="#fff" d="M960 1880h40v40h-40zm40 0h40v40h-40z"/><path fill="#e4e4e4" d="M1040 1880h40v40h-40zm40 0h40v40h-40z"/><path fill="#fff" d="M1120 1880h40v40h-40zm40 0h40v40h-40zm40 0h40v40h-40zm40 0h40v40h-40zm40 0h40v40h-40zm40 0h40v40h-40zm40 0h40v40h-40zm40 0h40v40h-40z"/><path fill="#cbdbff" d="M1440 1880h40v40h-40z"/><path fill="#fff" d="M1480 1880h40v40h-40zm40 0h40v40h-40zm40 0h40v40h-40zm40 0h40v40h-40z"/><path fill="#cbdbff" d="M1640 1880h40v40h-40zm40 0h40v40h-40zm40 0h40v40h-40z"/><path fill="#fff" d="M1760 1880h40v40h-40zm40 0h40v40h-40zm40 0h40v40h-40z"/><path fill="#e4e4e4" d="M1880 1880h40v40h-40z"/><path fill="#fff" d="M1920 1880h40v40h-40zm40 0h40v40h-40zm40 0h40v40h-40zm40 0h40v40h-40zm40 0h40v40h-40z"/><path fill="#cbdbff" d="M2120 1880h40v40h-40zm40 0h40v40h-40zm40 0h40v40h-40zm40 0h40v40h-40zm40 0h40v40h-40zm40 0h40v40h-40z"/><path fill="#fff" d="M2360 1880h40v40h-40zm40 0h40v40h-40zm40 0h40v40h-40zm40 0h40v40h-40zm40 0h40v40h-40zm40 0h40v40h-40zm40 0h40v40h-40zm40 0h40v40h-40zm40 0h40v40h-40z"/><path fill="#cbdbff" d="M2720 1880h40v40h-40z"/><path fill="#fff" d="M2760 1880h40v40h-40z"/><path fill="#020401" d="M2800 1880h40v40h-40z"/><path fill="#fff" d="M2840 1880h40v40h-40z"/><path fill="#020401" d="M2880 1880h40v40h-40z"/><path fill="#767c7f" d="M2920 1880h40v40h-40zm600 0h40v40h-40z"/><path fill="#020401" d="M3560 1880h40v40h-40z"/><path fill="#fff" d="M3600 1880h40v40h-40z"/><path fill="#e4e4e4" d="M3640 1880h40v40h-40z"/><path fill="#fff" d="M3680 1880h40v40h-40zm40 0h40v40h-40z"/><path fill="#020401" d="M3760 1880h40v40h-40zm-3440 40h40v40h-40z"/><path fill="#fff" d="M360 1920h40v40h-40zm40 0h40v40h-40zm40 0h40v40h-40z"/><path fill="#e4e4e4" d="M480 1920h40v40h-40z"/><path fill="#fff" d="M520 1920h40v40h-40zm40 0h40v40h-40z"/><path fill="#cbdbff" d="M600 1920h40v40h-40zm40 0h40v40h-40z"/><path fill="#020401" d="M680 1920h40v40h-40zm200 0h40v40h-40z"/><path fill="#767c7f" d="M920 1920h40v40h-40z"/><path fill="#fff" d="M960 1920h40v40h-40zm40 0h40v40h-40z"/><path fill="#e4e4e4" d="M1040 1920h40v40h-40z"/><path fill="#fff" d="M1080 1920h40v40h-40zm40 0h40v40h-40zm40 0h40v40h-40zm40 0h40v40h-40zm40 0h40v40h-40zm40 0h40v40h-40zm40 0h40v40h-40zm40 0h40v40h-40zm40 0h40v40h-40z"/><path fill="#cbdbff" d="M1440 1920h40v40h-40z"/><path fill="#fff" d="M1480 1920h40v40h-40zm40 0h40v40h-40zm40 0h40v40h-40zm40 0h40v40h-40z"/><path fill="#cbdbff" d="M1640 1920h40v40h-40zm40 0h40v40h-40zm40 0h40v40h-40z"/><path fill="#fff" d="M1760 1920h40v40h-40zm40 0h40v40h-40zm40 0h40v40h-40z"/><path fill="#e4e4e4" d="M1880 1920h40v40h-40z"/><path fill="#fff" d="M1920 1920h40v40h-40zm40 0h40v40h-40zm40 0h40v40h-40zm40 0h40v40h-40zm40 0h40v40h-40zm40 0h40v40h-40zm40 0h40v40h-40z"/><path fill="#cbdbff" d="M2200 1920h40v40h-40zm40 0h40v40h-40zm40 0h40v40h-40zm40 0h40v40h-40z"/><path fill="#fff" d="M2360 1920h40v40h-40zm40 0h40v40h-40zm40 0h40v40h-40zm40 0h40v40h-40zm40 0h40v40h-40zm40 0h40v40h-40z"/><path fill="#e4e4e4" d="M2600 1920h40v40h-40z"/><path fill="#fff" d="M2640 1920h40v40h-40zm40 0h40v40h-40z"/><path fill="#cbdbff" d="M2720 1920h40v40h-40z"/><path fill="#fff" d="M2760 1920h40v40h-40z"/><path fill="#020401" d="M2800 1920h40v40h-40z"/><path fill="#fff" d="M2840 1920h40v40h-40z"/><path fill="#020401" d="M2880 1920h40v40h-40z"/><path fill="#767c7f" d="M2920 1920h40v40h-40zm600 0h40v40h-40z"/><path fill="#020401" d="M3560 1920h40v40h-40z"/><path fill="#fff" d="M3600 1920h40v40h-40zm40 0h40v40h-40zm40 0h40v40h-40zm40 0h40v40h-40z"/><path fill="#020401" d="M3760 1920h40v40h-40zm-3440 40h40v40h-40z"/><path fill="#fff" d="M360 1960h40v40h-40zm40 0h40v40h-40zm40 0h40v40h-40z"/><path fill="#e4e4e4" d="M480 1960h40v40h-40zm40 0h40v40h-40z"/><path fill="#fff" d="M560 1960h40v40h-40zm40 0h40v40h-40z"/><path fill="#cbdbff" d="M640 1960h40v40h-40z"/><path fill="#020401" d="M680 1960h40v40h-40zm160 0h40v40h-40z"/><path fill="#767c7f" d="M880 1960h40v40h-40z"/><path fill="#fff" d="M920 1960h40v40h-40zm40 0h40v40h-40z"/><path fill="#e4e4e4" d="M1000 1960h40v40h-40zm40 0h40v40h-40z"/><path fill="#fff" d="M1080 1960h40v40h-40zm40 0h40v40h-40zm40 0h40v40h-40zm40 0h40v40h-40zm40 0h40v40h-40zm40 0h40v40h-40zm40 0h40v40h-40zm40 0h40v40h-40zm40 0h40v40h-40zm40 0h40v40h-40zm40 0h40v40h-40zm40 0h40v40h-40zm40 0h40v40h-40zm40 0h40v40h-40zm40 0h40v40h-40zm40 0h40v40h-40zm40 0h40v40h-40zm40 0h40v40h-40zm40 0h40v40h-40z"/><path fill="#e4e4e4" d="M1840 1960h40v40h-40zm40 0h40v40h-40z"/><path fill="#fff" d="M1920 1960h40v40h-40zm40 0h40v40h-40zm40 0h40v40h-40zm40 0h40v40h-40zm40 0h40v40h-40zm40 0h40v40h-40zm40 0h40v40h-40zm40 0h40v40h-40zm40 0h40v40h-40zm40 0h40v40h-40zm40 0h40v40h-40zm40 0h40v40h-40zm40 0h40v40h-40zm40 0h40v40h-40zm40 0h40v40h-40zm40 0h40v40h-40zm40 0h40v40h-40zm40 0h40v40h-40zm40 0h40v40h-40zm40 0h40v40h-40zm40 0h40v40h-40zm40 0h40v40h-40z"/><path fill="#cbdbff" d="M2800 1960h40v40h-40z"/><path fill="#020401" d="M2840 1960h40v40h-40zm40 0h40v40h-40z"/><path fill="#767c7f" d="M3480 1960h40v40h-40zm40 0h40v40h-40z"/><path fill="#020401" d="M3560 1960h40v40h-40z"/><path fill="#fff" d="M3600 1960h40v40h-40zm40 0h40v40h-40zm40 0h40v40h-40z"/><path fill="#020401" d="M3720 1960h40v40h-40zm-3400 40h40v40h-40z"/><path fill="#fff" d="M360 2000h40v40h-40zm40 0h40v40h-40zm40 0h40v40h-40zm40 0h40v40h-40z"/><path fill="#e4e4e4" d="M520 2000h40v40h-40z"/><path fill="#fff" d="M560 2000h40v40h-40zm40 0h40v40h-40zm40 0h40v40h-40z"/><path fill="#020401" d="M680 2000h40v40h-40zm160 0h40v40h-40z"/><path fill="#fff" d="M880 2000h40v40h-40zm40 0h40v40h-40z"/><path fill="#e4e4e4" d="M960 2000h40v40h-40zm40 0h40v40h-40z"/><path fill="#fff" d="M1040 2000h40v40h-40zm40 0h40v40h-40zm40 0h40v40h-40zm40 0h40v40h-40zm40 0h40v40h-40zm40 0h40v40h-40zm40 0h40v40h-40zm40 0h40v40h-40zm40 0h40v40h-40zm40 0h40v40h-40zm40 0h40v40h-40zm40 0h40v40h-40zm40 0h40v40h-40zm40 0h40v40h-40zm40 0h40v40h-40zm40 0h40v40h-40zm40 0h40v40h-40zm40 0h40v40h-40zm40 0h40v40h-40zm40 0h40v40h-40z"/><path fill="#e4e4e4" d="M1840 2000h40v40h-40zm40 0h40v40h-40z"/><path fill="#fff" d="M1920 2000h40v40h-40zm40 0h40v40h-40zm40 0h40v40h-40zm40 0h40v40h-40zm40 0h40v40h-40zm40 0h40v40h-40zm40 0h40v40h-40zm40 0h40v40h-40zm40 0h40v40h-40zm40 0h40v40h-40zm40 0h40v40h-40zm40 0h40v40h-40zm40 0h40v40h-40zm40 0h40v40h-40zm40 0h40v40h-40zm40 0h40v40h-40zm40 0h40v40h-40zm40 0h40v40h-40z"/><path fill="#e4e4e4" d="M2640 2000h40v40h-40z"/><path fill="#fff" d="M2680 2000h40v40h-40zm40 0h40v40h-40zm40 0h40v40h-40z"/><path fill="#cbdbff" d="M2800 2000h40v40h-40z"/><path fill="#020401" d="M2840 2000h40v40h-40z"/><path fill="#767c7f" d="M2880 2000h40v40h-40z"/><path fill="#020401" d="M3480 2000h40v40h-40z"/><path fill="#767c7f" d="M3520 2000h40v40h-40z"/><path fill="#fff" d="M3560 2000h40v40h-40zm40 0h40v40h-40z"/><path fill="#cbdbff" d="M3640 2000h40v40h-40z"/><path fill="#767c7f" d="M3680 2000h40v40h-40z"/><path fill="#020401" d="M3720 2000h40v40h-40z"/><path fill="#767c7f" d="M240 2040h40v40h-40zm40 0h40v40h-40zm40 0h40v40h-40z"/><path fill="#fff" d="M360 2040h40v40h-40zm40 0h40v40h-40zm40 0h40v40h-40zm40 0h40v40h-40z"/><path fill="#e4e4e4" d="M520 2040h40v40h-40z"/><path fill="#fff" d="M560 2040h40v40h-40zm40 0h40v40h-40z"/><path fill="#767c7f" d="M640 2040h40v40h-40z"/><path fill="#020401" d="M680 2040h40v40h-40z"/><path fill="#767c7f" d="M840 2040h40v40h-40z"/><path fill="#fff" d="M880 2040h40v40h-40z"/><path fill="#e4e4e4" d="M920 2040h40v40h-40zm40 0h40v40h-40z"/><path fill="#fff" d="M1000 2040h40v40h-40zm40 0h40v40h-40zm40 0h40v40h-40zm40 0h40v40h-40zm40 0h40v40h-40zm40 0h40v40h-40zm40 0h40v40h-40zm40 0h40v40h-40zm40 0h40v40h-40zm40 0h40v40h-40zm40 0h40v40h-40zm40 0h40v40h-40zm40 0h40v40h-40zm40 0h40v40h-40zm40 0h40v40h-40zm40 0h40v40h-40zm40 0h40v40h-40zm40 0h40v40h-40zm40 0h40v40h-40zm40 0h40v40h-40z"/><path fill="#e4e4e4" d="M1800 2040h40v40h-40zm40 0h40v40h-40z"/><path fill="#fff" d="M1880 2040h40v40h-40zm40 0h40v40h-40zm40 0h40v40h-40zm40 0h40v40h-40zm40 0h40v40h-40zm40 0h40v40h-40zm40 0h40v40h-40zm40 0h40v40h-40zm40 0h40v40h-40zm40 0h40v40h-40zm40 0h40v40h-40zm40 0h40v40h-40zm40 0h40v40h-40zm40 0h40v40h-40zm40 0h40v40h-40zm40 0h40v40h-40zm40 0h40v40h-40zm40 0h40v40h-40zm40 0h40v40h-40z"/><path fill="#e4e4e4" d="M2640 2040h40v40h-40zm40 0h40v40h-40z"/><path fill="#fff" d="M2720 2040h40v40h-40zm40 0h40v40h-40zm40 0h40v40h-40z"/><path fill="#767c7f" d="M2840 2040h40v40h-40zm40 0h40v40h-40z"/><path fill="#020401" d="M3440 2040h40v40h-40z"/><path fill="#fff" d="M3480 2040h40v40h-40zm40 0h40v40h-40zm40 0h40v40h-40z"/><path fill="#cbdbff" d="M3600 2040h40v40h-40z"/><path fill="#767c7f" d="M3680 2040h40v40h-40zm40 0h40v40h-40z"/><path fill="#020401" d="M240 2080h40v40h-40z"/><path fill="#fff" d="M280 2080h40v40h-40zm40 0h40v40h-40zm40 0h40v40h-40zm40 0h40v40h-40zm40 0h40v40h-40zm40 0h40v40h-40zm40 0h40v40h-40zm40 0h40v40h-40zm40 0h40v40h-40z"/><path fill="#767c7f" d="M640 2080h40v40h-40z"/><path fill="#020401" d="M680 2080h40v40h-40zm120 0h40v40h-40z"/><path fill="#767c7f" d="M840 2080h40v40h-40z"/><path fill="#fff" d="M880 2080h40v40h-40z"/><path fill="#e4e4e4" d="M920 2080h40v40h-40z"/><path fill="#fff" d="M960 2080h40v40h-40zm40 0h40v40h-40zm40 0h40v40h-40zm40 0h40v40h-40zm40 0h40v40h-40zm40 0h40v40h-40zm40 0h40v40h-40zm40 0h40v40h-40zm40 0h40v40h-40zm40 0h40v40h-40zm40 0h40v40h-40zm40 0h40v40h-40zm40 0h40v40h-40zm40 0h40v40h-40zm40 0h40v40h-40zm40 0h40v40h-40zm40 0h40v40h-40zm40 0h40v40h-40zm40 0h40v40h-40zm40 0h40v40h-40z"/><path fill="#e4e4e4" d="M1760 2080h40v40h-40zm40 0h40v40h-40z"/><path fill="#fff" d="M1840 2080h40v40h-40zm40 0h40v40h-40zm40 0h40v40h-40zm40 0h40v40h-40zm40 0h40v40h-40zm40 0h40v40h-40zm40 0h40v40h-40zm40 0h40v40h-40zm40 0h40v40h-40zm40 0h40v40h-40zm40 0h40v40h-40zm40 0h40v40h-40zm40 0h40v40h-40zm40 0h40v40h-40zm40 0h40v40h-40zm40 0h40v40h-40zm40 0h40v40h-40zm40 0h40v40h-40zm40 0h40v40h-40zm40 0h40v40h-40zm40 0h40v40h-40z"/><path fill="#e4e4e4" d="M2680 2080h40v40h-40zm40 0h40v40h-40z"/><path fill="#fff" d="M2760 2080h40v40h-40zm40 0h40v40h-40z"/><path fill="#767c7f" d="M2840 2080h40v40h-40z"/><path fill="#020401" d="M2880 2080h40v40h-40z"/><path fill="#767c7f" d="M3400 2080h40v40h-40z"/><path fill="#020401" d="M3440 2080h40v40h-40z"/><path fill="#fff" d="M3480 2080h40v40h-40zm40 0h40v40h-40zm40 0h40v40h-40z"/><path fill="#767c7f" d="M3600 2080h40v40h-40z"/><path fill="#020401" d="M3640 2080h40v40h-40z"/><path fill="#767c7f" d="M3680 2080h40v40h-40z"/><path fill="#020401" d="M240 2120h40v40h-40z"/><path fill="#fff" d="M280 2120h40v40h-40zm40 0h40v40h-40zm40 0h40v40h-40zm40 0h40v40h-40zm40 0h40v40h-40zm40 0h40v40h-40zm40 0h40v40h-40zm40 0h40v40h-40zm40 0h40v40h-40z"/><path fill="#767c7f" d="M640 2120h40v40h-40zm40 0h40v40h-40z"/><path fill="#020401" d="M720 2120h40v40h-40zm40 0h40v40h-40zm40 0h40v40h-40z"/><path fill="#767c7f" d="M840 2120h40v40h-40z"/><path fill="#fff" d="M880 2120h40v40h-40zm40 0h40v40h-40zm40 0h40v40h-40zm40 0h40v40h-40zm40 0h40v40h-40zm40 0h40v40h-40zm40 0h40v40h-40zm40 0h40v40h-40zm40 0h40v40h-40zm40 0h40v40h-40zm40 0h40v40h-40zm40 0h40v40h-40zm40 0h40v40h-40zm40 0h40v40h-40zm40 0h40v40h-40zm40 0h40v40h-40zm40 0h40v40h-40zm40 0h40v40h-40zm40 0h40v40h-40zm40 0h40v40h-40zm40 0h40v40h-40zm40 0h40v40h-40zm40 0h40v40h-40zm40 0h40v40h-40zm40 0h40v40h-40zm40 0h40v40h-40zm40 0h40v40h-40zm40 0h40v40h-40zm40 0h40v40h-40zm40 0h40v40h-40zm40 0h40v40h-40zm40 0h40v40h-40zm40 0h40v40h-40zm40 0h40v40h-40zm40 0h40v40h-40zm40 0h40v40h-40zm40 0h40v40h-40zm40 0h40v40h-40zm40 0h40v40h-40zm40 0h40v40h-40zm40 0h40v40h-40zm40 0h40v40h-40zm40 0h40v40h-40zm40 0h40v40h-40zm40 0h40v40h-40zm40 0h40v40h-40z"/><path fill="#e4e4e4" d="M2720 2120h40v40h-40zm40 0h40v40h-40z"/><path fill="#fff" d="M2800 2120h40v40h-40z"/><path fill="#cbdbff" d="M2840 2120h40v40h-40z"/><path fill="#020401" d="M2880 2120h40v40h-40zm440 0h40v40h-40zm40 0h40v40h-40zm40 0h40v40h-40z"/><path fill="#767c7f" d="M3440 2120h40v40h-40z"/><path fill="#fff" d="M3480 2120h40v40h-40zm40 0h40v40h-40z"/><path fill="#767c7f" d="M3560 2120h40v40h-40z"/><path fill="#020401" d="M3600 2120h40v40h-40zm-3360 40h40v40h-40z"/><path fill="#fff" d="M280 2160h40v40h-40zm40 0h40v40h-40zm40 0h40v40h-40z"/><path fill="#e4e4e4" d="M400 2160h40v40h-40z"/><path fill="#fff" d="M440 2160h40v40h-40zm40 0h40v40h-40zm40 0h40v40h-40zm40 0h40v40h-40zm40 0h40v40h-40zm40 0h40v40h-40zm40 0h40v40h-40z"/><path fill="#cbdbff" d="M720 2160h40v40h-40z"/><path fill="#767c7f" d="M760 2160h40v40h-40zm40 0h40v40h-40z"/><path fill="#fff" d="M840 2160h40v40h-40zm40 0h40v40h-40zm40 0h40v40h-40zm40 0h40v40h-40zm40 0h40v40h-40zm40 0h40v40h-40zm40 0h40v40h-40zm40 0h40v40h-40zm40 0h40v40h-40zm40 0h40v40h-40zm40 0h40v40h-40zm40 0h40v40h-40zm40 0h40v40h-40zm40 0h40v40h-40zm40 0h40v40h-40zm40 0h40v40h-40zm40 0h40v40h-40zm40 0h40v40h-40zm40 0h40v40h-40zm40 0h40v40h-40zm40 0h40v40h-40zm40 0h40v40h-40zm40 0h40v40h-40zm40 0h40v40h-40zm40 0h40v40h-40zm40 0h40v40h-40zm40 0h40v40h-40zm40 0h40v40h-40zm40 0h40v40h-40zm40 0h40v40h-40zm40 0h40v40h-40zm40 0h40v40h-40zm40 0h40v40h-40zm40 0h40v40h-40zm40 0h40v40h-40zm40 0h40v40h-40zm40 0h40v40h-40zm40 0h40v40h-40zm40 0h40v40h-40zm40 0h40v40h-40zm40 0h40v40h-40zm40 0h40v40h-40zm40 0h40v40h-40zm40 0h40v40h-40zm40 0h40v40h-40zm40 0h40v40h-40zm40 0h40v40h-40zm40 0h40v40h-40z"/><path fill="#e4e4e4" d="M2760 2160h40v40h-40z"/><path fill="#fff" d="M2800 2160h40v40h-40zm40 0h40v40h-40z"/><path fill="#020401" d="M2880 2160h40v40h-40zm320 0h40v40h-40zm40 0h40v40h-40zm40 0h40v40h-40z"/><path fill="#767c7f" d="M3320 2160h40v40h-40z"/><path fill="#fff" d="M3360 2160h40v40h-40zm40 0h40v40h-40zm40 0h40v40h-40z"/><path fill="#cbdbff" d="M3480 2160h40v40h-40z"/><path fill="#767c7f" d="M3520 2160h40v40h-40z"/><path fill="#020401" d="M3560 2160h40v40h-40zm-3320 40h40v40h-40z"/><path fill="#fff" d="M280 2200h40v40h-40zm40 0h40v40h-40zm40 0h40v40h-40z"/><path fill="#e4e4e4" d="M400 2200h40v40h-40zm40 0h40v40h-40z"/><path fill="#fff" d="M480 2200h40v40h-40zm40 0h40v40h-40zm40 0h40v40h-40zm40 0h40v40h-40zm40 0h40v40h-40zm40 0h40v40h-40z"/><path fill="#cbdbff" d="M720 2200h40v40h-40zm40 0h40v40h-40zm40 0h40v40h-40z"/><path fill="#fff" d="M840 2200h40v40h-40zm40 0h40v40h-40zm40 0h40v40h-40zm40 0h40v40h-40zm40 0h40v40h-40zm40 0h40v40h-40zm40 0h40v40h-40zm40 0h40v40h-40zm40 0h40v40h-40zm40 0h40v40h-40zm40 0h40v40h-40zm40 0h40v40h-40zm40 0h40v40h-40zm40 0h40v40h-40zm40 0h40v40h-40zm40 0h40v40h-40zm40 0h40v40h-40zm40 0h40v40h-40zm40 0h40v40h-40zm40 0h40v40h-40zm40 0h40v40h-40zm40 0h40v40h-40zm40 0h40v40h-40zm40 0h40v40h-40zm40 0h40v40h-40zm40 0h40v40h-40zm40 0h40v40h-40zm40 0h40v40h-40zm40 0h40v40h-40zm40 0h40v40h-40zm40 0h40v40h-40zm40 0h40v40h-40zm40 0h40v40h-40zm40 0h40v40h-40zm40 0h40v40h-40zm40 0h40v40h-40zm40 0h40v40h-40zm40 0h40v40h-40zm40 0h40v40h-40zm40 0h40v40h-40zm40 0h40v40h-40zm40 0h40v40h-40zm40 0h40v40h-40zm40 0h40v40h-40zm40 0h40v40h-40zm40 0h40v40h-40zm40 0h40v40h-40zm40 0h40v40h-40z"/><path fill="#e4e4e4" d="M2760 2200h40v40h-40z"/><path fill="#fff" d="M2800 2200h40v40h-40zm40 0h40v40h-40z"/><path fill="#020401" d="M2880 2200h40v40h-40z"/><path fill="#767c7f" d="M2920 2200h40v40h-40zm240 0h40v40h-40zm40 0h40v40h-40z"/><path fill="#fff" d="M3240 2200h40v40h-40zm40 0h40v40h-40z"/><path fill="#e4e4e4" d="M3320 2200h40v40h-40zm40 0h40v40h-40z"/><path fill="#fff" d="M3400 2200h40v40h-40z"/><path fill="#cbdbff" d="M3440 2200h40v40h-40z"/><path fill="#767c7f" d="M3480 2200h40v40h-40zm40 0h40v40h-40zm40 0h40v40h-40z"/><path fill="#020401" d="M240 2240h40v40h-40z"/><path fill="#767c7f" d="M280 2240h40v40h-40z"/><path fill="#cbdbff" d="M320 2240h40v40h-40z"/><path fill="#fff" d="M360 2240h40v40h-40zm40 0h40v40h-40z"/><path fill="#e4e4e4" d="M440 2240h40v40h-40zm40 0h40v40h-40z"/><path fill="#fff" d="M520 2240h40v40h-40zm40 0h40v40h-40zm40 0h40v40h-40zm40 0h40v40h-40zm40 0h40v40h-40zm40 0h40v40h-40z"/><path fill="#cbdbff" d="M760 2240h40v40h-40zm40 0h40v40h-40z"/><path fill="#fff" d="M840 2240h40v40h-40zm40 0h40v40h-40zm40 0h40v40h-40zm40 0h40v40h-40zm40 0h40v40h-40zm40 0h40v40h-40zm40 0h40v40h-40zm40 0h40v40h-40zm40 0h40v40h-40zm40 0h40v40h-40zm40 0h40v40h-40zm40 0h40v40h-40zm40 0h40v40h-40zm40 0h40v40h-40zm40 0h40v40h-40zm40 0h40v40h-40zm40 0h40v40h-40zm40 0h40v40h-40zm40 0h40v40h-40zm40 0h40v40h-40zm40 0h40v40h-40zm40 0h40v40h-40zm40 0h40v40h-40zm40 0h40v40h-40zm40 0h40v40h-40zm40 0h40v40h-40zm40 0h40v40h-40zm40 0h40v40h-40zm40 0h40v40h-40zm40 0h40v40h-40zm40 0h40v40h-40zm40 0h40v40h-40zm40 0h40v40h-40zm40 0h40v40h-40zm40 0h40v40h-40zm40 0h40v40h-40zm40 0h40v40h-40zm40 0h40v40h-40zm40 0h40v40h-40zm40 0h40v40h-40zm40 0h40v40h-40zm40 0h40v40h-40zm40 0h40v40h-40zm40 0h40v40h-40zm40 0h40v40h-40zm40 0h40v40h-40zm40 0h40v40h-40zm40 0h40v40h-40zm40 0h40v40h-40zm40 0h40v40h-40zm40 0h40v40h-40z"/><path fill="#020401" d="M2880 2240h40v40h-40z"/><path fill="#767c7f" d="M2920 2240h40v40h-40zm40 0h40v40h-40z"/><path fill="#020401" d="M3040 2240h40v40h-40zm40 0h40v40h-40zm40 0h40v40h-40zm40 0h40v40h-40z"/><path fill="#fff" d="M3200 2240h40v40h-40zm40 0h40v40h-40zm40 0h40v40h-40z"/><path fill="#e4e4e4" d="M3320 2240h40v40h-40z"/><path fill="#fff" d="M3360 2240h40v40h-40zm40 0h40v40h-40z"/><path fill="#cbdbff" d="M3440 2240h40v40h-40z"/><path fill="#020401" d="M3480 2240h40v40h-40z"/><path fill="#767c7f" d="M3520 2240h40v40h-40zm-3240 40h40v40h-40z"/><path fill="#020401" d="M320 2280h40v40h-40z"/><path fill="#fff" d="M360 2280h40v40h-40zm40 0h40v40h-40zm40 0h40v40h-40z"/><path fill="#e4e4e4" d="M480 2280h40v40h-40z"/><path fill="#fff" d="M520 2280h40v40h-40zm40 0h40v40h-40zm40 0h40v40h-40zm40 0h40v40h-40zm40 0h40v40h-40zm40 0h40v40h-40zm40 0h40v40h-40z"/><path fill="#cbdbff" d="M800 2280h40v40h-40z"/><path fill="#fff" d="M840 2280h40v40h-40z"/><path fill="#e4e4e4" d="M880 2280h40v40h-40z"/><path fill="#fff" d="M920 2280h40v40h-40zm40 0h40v40h-40zm40 0h40v40h-40zm40 0h40v40h-40zm40 0h40v40h-40zm40 0h40v40h-40zm40 0h40v40h-40zm40 0h40v40h-40zm40 0h40v40h-40zm40 0h40v40h-40zm40 0h40v40h-40zm40 0h40v40h-40zm40 0h40v40h-40zm40 0h40v40h-40zm40 0h40v40h-40zm40 0h40v40h-40zm40 0h40v40h-40zm40 0h40v40h-40zm40 0h40v40h-40zm40 0h40v40h-40zm40 0h40v40h-40zm40 0h40v40h-40zm40 0h40v40h-40zm40 0h40v40h-40zm40 0h40v40h-40zm40 0h40v40h-40zm40 0h40v40h-40zm40 0h40v40h-40zm40 0h40v40h-40zm40 0h40v40h-40zm40 0h40v40h-40zm40 0h40v40h-40zm40 0h40v40h-40zm40 0h40v40h-40zm40 0h40v40h-40zm40 0h40v40h-40zm40 0h40v40h-40zm40 0h40v40h-40zm40 0h40v40h-40zm40 0h40v40h-40zm40 0h40v40h-40zm40 0h40v40h-40zm40 0h40v40h-40zm40 0h40v40h-40zm40 0h40v40h-40zm40 0h40v40h-40zm40 0h40v40h-40zm40 0h40v40h-40zm40 0h40v40h-40z"/><path fill="#020401" d="M2880 2280h40v40h-40zm40 0h40v40h-40zm40 0h40v40h-40zm40 0h40v40h-40z"/><path fill="#fff" d="M3040 2280h40v40h-40zm40 0h40v40h-40zm40 0h40v40h-40zm40 0h40v40h-40z"/><path fill="#cbdbff" d="M3200 2280h40v40h-40z"/><path fill="#fff" d="M3240 2280h40v40h-40zm40 0h40v40h-40z"/><path fill="#767c7f" d="M3320 2280h40v40h-40z"/><path fill="#020401" d="M3360 2280h40v40h-40zm40 0h40v40h-40zm40 0h40v40h-40zm-3120 40h40v40h-40z"/><path fill="#cbdbff" d="M360 2320h40v40h-40z"/><path fill="#fff" d="M400 2320h40v40h-40zm40 0h40v40h-40zm40 0h40v40h-40zm40 0h40v40h-40zm40 0h40v40h-40zm40 0h40v40h-40zm40 0h40v40h-40zm40 0h40v40h-40zm40 0h40v40h-40zm40 0h40v40h-40zm40 0h40v40h-40zm40 0h40v40h-40zm40 0h40v40h-40zm40 0h40v40h-40zm40 0h40v40h-40zm40 0h40v40h-40zm40 0h40v40h-40zm40 0h40v40h-40zm40 0h40v40h-40zm40 0h40v40h-40zm40 0h40v40h-40zm40 0h40v40h-40zm40 0h40v40h-40zm40 0h40v40h-40zm40 0h40v40h-40zm40 0h40v40h-40zm40 0h40v40h-40zm40 0h40v40h-40zm40 0h40v40h-40zm40 0h40v40h-40zm40 0h40v40h-40zm40 0h40v40h-40zm40 0h40v40h-40zm40 0h40v40h-40zm40 0h40v40h-40zm40 0h40v40h-40zm40 0h40v40h-40zm40 0h40v40h-40zm40 0h40v40h-40zm40 0h40v40h-40zm40 0h40v40h-40zm40 0h40v40h-40zm40 0h40v40h-40zm40 0h40v40h-40zm40 0h40v40h-40zm40 0h40v40h-40zm40 0h40v40h-40zm40 0h40v40h-40zm40 0h40v40h-40zm40 0h40v40h-40zm40 0h40v40h-40zm40 0h40v40h-40zm40 0h40v40h-40zm40 0h40v40h-40zm40 0h40v40h-40zm40 0h40v40h-40zm40 0h40v40h-40zm40 0h40v40h-40zm40 0h40v40h-40zm40 0h40v40h-40zm40 0h40v40h-40zm40 0h40v40h-40z"/><path fill="#020401" d="M2880 2320h40v40h-40z"/><path fill="#cbdbff" d="M2920 2320h40v40h-40zm40 0h40v40h-40z"/><path fill="#fff" d="M3000 2320h40v40h-40zm40 0h40v40h-40z"/><path fill="#e4e4e4" d="M3080 2320h40v40h-40zm40 0h40v40h-40z"/><path fill="#fff" d="M3160 2320h40v40h-40z"/><path fill="#cbdbff" d="M3200 2320h40v40h-40zm40 0h40v40h-40z"/><path fill="#020401" d="M3280 2320h40v40h-40zm40 0h40v40h-40z"/><path fill="#767c7f" d="M320 2360h40v40h-40zm40 0h40v40h-40zm40 0h40v40h-40z"/><path fill="#fff" d="M440 2360h40v40h-40zm40 0h40v40h-40z"/><path fill="#e4e4e4" d="M520 2360h40v40h-40zm40 0h40v40h-40z"/><path fill="#fff" d="M600 2360h40v40h-40zm40 0h40v40h-40zm40 0h40v40h-40z"/><path fill="#cbdbff" d="M720 2360h40v40h-40zm40 0h40v40h-40z"/><path fill="#fff" d="M800 2360h40v40h-40zm40 0h40v40h-40z"/><path fill="#e4e4e4" d="M880 2360h40v40h-40z"/><path fill="#fff" d="M920 2360h40v40h-40zm40 0h40v40h-40zm40 0h40v40h-40zm40 0h40v40h-40zm40 0h40v40h-40zm40 0h40v40h-40zm40 0h40v40h-40zm40 0h40v40h-40zm40 0h40v40h-40zm40 0h40v40h-40zm40 0h40v40h-40zm40 0h40v40h-40zm40 0h40v40h-40zm40 0h40v40h-40zm40 0h40v40h-40zm40 0h40v40h-40zm40 0h40v40h-40zm40 0h40v40h-40zm40 0h40v40h-40zm40 0h40v40h-40zm40 0h40v40h-40zm40 0h40v40h-40zm40 0h40v40h-40zm40 0h40v40h-40zm40 0h40v40h-40zm40 0h40v40h-40zm40 0h40v40h-40zm40 0h40v40h-40zm40 0h40v40h-40zm40 0h40v40h-40zm40 0h40v40h-40zm40 0h40v40h-40zm40 0h40v40h-40zm40 0h40v40h-40zm40 0h40v40h-40zm40 0h40v40h-40zm40 0h40v40h-40zm40 0h40v40h-40zm40 0h40v40h-40zm40 0h40v40h-40zm40 0h40v40h-40zm40 0h40v40h-40zm40 0h40v40h-40zm40 0h40v40h-40zm40 0h40v40h-40zm40 0h40v40h-40zm40 0h40v40h-40zm40 0h40v40h-40zm40 0h40v40h-40z"/><path fill="#020401" d="M2880 2360h40v40h-40z"/><path fill="#cbdbff" d="M2920 2360h40v40h-40zm40 0h40v40h-40z"/><path fill="#fff" d="M3000 2360h40v40h-40z"/><path fill="#e4e4e4" d="M3040 2360h40v40h-40zm40 0h40v40h-40z"/><path fill="#fff" d="M3120 2360h40v40h-40zm40 0h40v40h-40z"/><path fill="#cbdbff" d="M3200 2360h40v40h-40z"/><path fill="#767c7f" d="M3240 2360h40v40h-40zm40 0h40v40h-40zm40 0h40v40h-40z"/><path fill="#020401" d="M360 2400h40v40h-40z"/><path fill="#767c7f" d="M400 2400h40v40h-40z"/><path fill="#fff" d="M440 2400h40v40h-40zm40 0h40v40h-40zm40 0h40v40h-40zm40 0h40v40h-40zm40 0h40v40h-40z"/><path fill="#cbdbff" d="M640 2400h40v40h-40zm40 0h40v40h-40zm40 0h40v40h-40z"/><path fill="#fff" d="M760 2400h40v40h-40zm40 0h40v40h-40zm40 0h40v40h-40z"/><path fill="#e4e4e4" d="M880 2400h40v40h-40z"/><path fill="#fff" d="M920 2400h40v40h-40zm40 0h40v40h-40zm40 0h40v40h-40zm40 0h40v40h-40zm40 0h40v40h-40zm40 0h40v40h-40zm40 0h40v40h-40zm40 0h40v40h-40zm40 0h40v40h-40zm40 0h40v40h-40zm40 0h40v40h-40zm40 0h40v40h-40zm40 0h40v40h-40zm40 0h40v40h-40zm40 0h40v40h-40zm40 0h40v40h-40zm40 0h40v40h-40zm40 0h40v40h-40zm40 0h40v40h-40zm40 0h40v40h-40zm40 0h40v40h-40zm40 0h40v40h-40zm40 0h40v40h-40zm40 0h40v40h-40zm40 0h40v40h-40zm40 0h40v40h-40zm40 0h40v40h-40zm40 0h40v40h-40zm40 0h40v40h-40zm40 0h40v40h-40zm40 0h40v40h-40zm40 0h40v40h-40zm40 0h40v40h-40zm40 0h40v40h-40zm40 0h40v40h-40zm40 0h40v40h-40zm40 0h40v40h-40zm40 0h40v40h-40zm40 0h40v40h-40zm40 0h40v40h-40zm40 0h40v40h-40zm40 0h40v40h-40zm40 0h40v40h-40zm40 0h40v40h-40zm40 0h40v40h-40zm40 0h40v40h-40zm40 0h40v40h-40zm40 0h40v40h-40zm40 0h40v40h-40z"/><path fill="#020401" d="M2880 2400h40v40h-40z"/><path fill="#cbdbff" d="M2920 2400h40v40h-40zm40 0h40v40h-40z"/><path fill="#fff" d="M3000 2400h40v40h-40zm40 0h40v40h-40zm40 0h40v40h-40z"/><path fill="#767c7f" d="M3120 2400h40v40h-40z"/><path fill="#020401" d="M3160 2400h40v40h-40zm40 0h40v40h-40zm40 0h40v40h-40zm-2840 40h40v40h-40z"/><path fill="#767c7f" d="M440 2440h40v40h-40z"/><path fill="#fff" d="M480 2440h40v40h-40zm40 0h40v40h-40zm40 0h40v40h-40zm40 0h40v40h-40zm40 0h40v40h-40z"/><path fill="#cbdbff" d="M680 2440h40v40h-40zm40 0h40v40h-40z"/><path fill="#fff" d="M760 2440h40v40h-40zm40 0h40v40h-40zm40 0h40v40h-40zm40 0h40v40h-40zm40 0h40v40h-40z"/><path fill="#e4e4e4" d="M960 2440h40v40h-40zm40 0h40v40h-40z"/><path fill="#fff" d="M1040 2440h40v40h-40zm40 0h40v40h-40zm40 0h40v40h-40zm40 0h40v40h-40zm40 0h40v40h-40zm40 0h40v40h-40zm40 0h40v40h-40zm40 0h40v40h-40z"/><path fill="#e4e4e4" d="M1360 2440h40v40h-40z"/><path fill="#fff" d="M1400 2440h40v40h-40zm40 0h40v40h-40zm40 0h40v40h-40zm40 0h40v40h-40zm40 0h40v40h-40zm40 0h40v40h-40zm40 0h40v40h-40zm40 0h40v40h-40zm40 0h40v40h-40zm40 0h40v40h-40zm40 0h40v40h-40zm40 0h40v40h-40zm40 0h40v40h-40zm40 0h40v40h-40zm40 0h40v40h-40zm40 0h40v40h-40zm40 0h40v40h-40zm40 0h40v40h-40zm40 0h40v40h-40zm40 0h40v40h-40zm40 0h40v40h-40zm40 0h40v40h-40zm40 0h40v40h-40zm40 0h40v40h-40zm40 0h40v40h-40zm40 0h40v40h-40zm40 0h40v40h-40zm40 0h40v40h-40zm40 0h40v40h-40zm40 0h40v40h-40zm40 0h40v40h-40zm40 0h40v40h-40zm40 0h40v40h-40zm40 0h40v40h-40zm40 0h40v40h-40zm40 0h40v40h-40z"/><path fill="#020401" d="M2840 2440h40v40h-40z"/><path fill="#cbdbff" d="M2880 2440h40v40h-40zm40 0h40v40h-40zm40 0h40v40h-40zm40 0h40v40h-40z"/><path fill="#020401" d="M3040 2440h40v40h-40zm40 0h40v40h-40zm40 0h40v40h-40zm-2680 40h40v40h-40zm40 0h40v40h-40zm40 0h40v40h-40z"/><path fill="#cbdbff" d="M560 2480h40v40h-40zm40 0h40v40h-40zm40 0h40v40h-40zm40 0h40v40h-40zm40 0h40v40h-40z"/><path fill="#fff" d="M760 2480h40v40h-40zm40 0h40v40h-40zm40 0h40v40h-40zm40 0h40v40h-40zm40 0h40v40h-40zm40 0h40v40h-40z"/><path fill="#e4e4e4" d="M1000 2480h40v40h-40zm40 0h40v40h-40z"/><path fill="#fff" d="M1080 2480h40v40h-40zm40 0h40v40h-40zm40 0h40v40h-40zm40 0h40v40h-40zm40 0h40v40h-40zm40 0h40v40h-40zm40 0h40v40h-40z"/><path fill="#e4e4e4" d="M1360 2480h40v40h-40z"/><path fill="#fff" d="M1400 2480h40v40h-40zm40 0h40v40h-40zm40 0h40v40h-40zm40 0h40v40h-40zm40 0h40v40h-40zm40 0h40v40h-40zm40 0h40v40h-40zm40 0h40v40h-40zm40 0h40v40h-40zm40 0h40v40h-40zm40 0h40v40h-40zm40 0h40v40h-40zm40 0h40v40h-40zm40 0h40v40h-40zm40 0h40v40h-40zm40 0h40v40h-40zm40 0h40v40h-40zm40 0h40v40h-40zm40 0h40v40h-40zm40 0h40v40h-40zm40 0h40v40h-40zm40 0h40v40h-40zm40 0h40v40h-40zm40 0h40v40h-40z"/><path fill="#e4e4e4" d="M2360 2480h40v40h-40zm40 0h40v40h-40z"/><path fill="#fff" d="M2440 2480h40v40h-40zm40 0h40v40h-40zm40 0h40v40h-40zm40 0h40v40h-40z"/><path fill="#e4e4e4" d="M2600 2480h40v40h-40zm40 0h40v40h-40z"/><path fill="#fff" d="M2680 2480h40v40h-40zm40 0h40v40h-40zm40 0h40v40h-40z"/><path fill="#767c7f" d="M2800 2480h40v40h-40z"/><path fill="#020401" d="M2840 2480h40v40h-40z"/><path fill="#cbdbff" d="M2880 2480h40v40h-40z"/><path fill="#fff" d="M2920 2480h40v40h-40z"/><path fill="#020401" d="M2960 2480h40v40h-40zm40 0h40v40h-40z"/><path fill="#767c7f" d="M520 2520h40v40h-40zm40 0h40v40h-40zm40 0h40v40h-40z"/><path fill="#cbdbff" d="M680 2520h40v40h-40zm40 0h40v40h-40zm40 0h40v40h-40zm40 0h40v40h-40zm40 0h40v40h-40z"/><path fill="#fff" d="M880 2520h40v40h-40zm40 0h40v40h-40zm40 0h40v40h-40zm40 0h40v40h-40z"/><path fill="#e4e4e4" d="M1040 2520h40v40h-40zm40 0h40v40h-40z"/><path fill="#fff" d="M1120 2520h40v40h-40zm40 0h40v40h-40zm40 0h40v40h-40zm40 0h40v40h-40zm40 0h40v40h-40zm40 0h40v40h-40zm40 0h40v40h-40zm40 0h40v40h-40zm40 0h40v40h-40zm40 0h40v40h-40zm40 0h40v40h-40zm40 0h40v40h-40zm40 0h40v40h-40zm40 0h40v40h-40zm40 0h40v40h-40zm40 0h40v40h-40zm40 0h40v40h-40zm40 0h40v40h-40zm40 0h40v40h-40zm40 0h40v40h-40zm40 0h40v40h-40zm40 0h40v40h-40zm40 0h40v40h-40zm40 0h40v40h-40zm40 0h40v40h-40zm40 0h40v40h-40zm40 0h40v40h-40zm40 0h40v40h-40zm40 0h40v40h-40zm40 0h40v40h-40z"/><path fill="#e4e4e4" d="M2320 2520h40v40h-40zm40 0h40v40h-40z"/><path fill="#fff" d="M2400 2520h40v40h-40zm40 0h40v40h-40zm40 0h40v40h-40zm40 0h40v40h-40zm40 0h40v40h-40zm40 0h40v40h-40zm40 0h40v40h-40zm40 0h40v40h-40zm40 0h40v40h-40zm40 0h40v40h-40z"/><path fill="#767c7f" d="M2800 2520h40v40h-40z"/><path fill="#020401" d="M2840 2520h40v40h-40z"/><path fill="#767c7f" d="M2880 2520h40v40h-40zm40 0h40v40h-40zm40 0h40v40h-40zm40 0h40v40h-40z"/><path fill="#020401" d="M560 2560h40v40h-40zm40 0h40v40h-40zm40 0h40v40h-40z"/><path fill="#767c7f" d="M680 2560h40v40h-40z"/><path fill="#fff" d="M720 2560h40v40h-40zm40 0h40v40h-40zm40 0h40v40h-40zm40 0h40v40h-40zm40 0h40v40h-40zm40 0h40v40h-40z"/><path fill="#cbdbff" d="M960 2560h40v40h-40zm40 0h40v40h-40z"/><path fill="#fff" d="M1040 2560h40v40h-40zm40 0h40v40h-40zm40 0h40v40h-40zm40 0h40v40h-40zm40 0h40v40h-40zm40 0h40v40h-40zm40 0h40v40h-40zm40 0h40v40h-40zm40 0h40v40h-40zm40 0h40v40h-40z"/><path fill="#e4e4e4" d="M1440 2560h40v40h-40z"/><path fill="#fff" d="M1480 2560h40v40h-40zm40 0h40v40h-40zm40 0h40v40h-40zm40 0h40v40h-40zm40 0h40v40h-40zm40 0h40v40h-40zm40 0h40v40h-40zm40 0h40v40h-40zm40 0h40v40h-40zm40 0h40v40h-40zm40 0h40v40h-40zm40 0h40v40h-40zm40 0h40v40h-40zm40 0h40v40h-40zm40 0h40v40h-40zm40 0h40v40h-40zm40 0h40v40h-40zm40 0h40v40h-40z"/><path fill="#e4e4e4" d="M2200 2560h40v40h-40z"/><path fill="#fff" d="M2240 2560h40v40h-40zm40 0h40v40h-40zm40 0h40v40h-40zm40 0h40v40h-40zm40 0h40v40h-40zm40 0h40v40h-40zm40 0h40v40h-40zm40 0h40v40h-40zm40 0h40v40h-40zm40 0h40v40h-40zm40 0h40v40h-40zm40 0h40v40h-40zm40 0h40v40h-40z"/><path fill="#767c7f" d="M2760 2560h40v40h-40zm40 0h40v40h-40z"/><path fill="#020401" d="M2840 2560h40v40h-40zm40 0h40v40h-40z"/><path fill="#767c7f" d="M2920 2560h40v40h-40z"/><path fill="#020401" d="M680 2600h40v40h-40zm40 0h40v40h-40zm40 0h40v40h-40zm40 0h40v40h-40zm40 0h40v40h-40zm40 0h40v40h-40zm40 0h40v40h-40z"/><path fill="#767c7f" d="M960 2600h40v40h-40z"/><path fill="#cbdbff" d="M1000 2600h40v40h-40zm40 0h40v40h-40z"/><path fill="#fff" d="M1080 2600h40v40h-40z"/><path fill="#cbdbff" d="M1120 2600h40v40h-40z"/><path fill="#fff" d="M1160 2600h40v40h-40zm40 0h40v40h-40zm40 0h40v40h-40zm40 0h40v40h-40zm40 0h40v40h-40zm40 0h40v40h-40zm40 0h40v40h-40zm40 0h40v40h-40z"/><path fill="#e4e4e4" d="M1480 2600h40v40h-40z"/><path fill="#fff" d="M1520 2600h40v40h-40zm40 0h40v40h-40zm40 0h40v40h-40zm40 0h40v40h-40zm40 0h40v40h-40zm40 0h40v40h-40zm40 0h40v40h-40zm40 0h40v40h-40zm40 0h40v40h-40zm40 0h40v40h-40zm40 0h40v40h-40zm40 0h40v40h-40zm40 0h40v40h-40zm40 0h40v40h-40zm40 0h40v40h-40z"/><path fill="#e4e4e4" d="M2120 2600h40v40h-40zm40 0h40v40h-40z"/><path fill="#fff" d="M2200 2600h40v40h-40zm40 0h40v40h-40zm40 0h40v40h-40zm40 0h40v40h-40zm40 0h40v40h-40zm40 0h40v40h-40zm40 0h40v40h-40zm40 0h40v40h-40zm40 0h40v40h-40zm40 0h40v40h-40z"/><path fill="#cbdbff" d="M2600 2600h40v40h-40zm40 0h40v40h-40z"/><path fill="#fff" d="M2680 2600h40v40h-40z"/><path fill="#020401" d="M2720 2600h40v40h-40zm40 0h40v40h-40zm40 0h40v40h-40z"/><path fill="#767c7f" d="M840 2640h40v40h-40zm40 0h40v40h-40zm40 0h40v40h-40zm40 0h40v40h-40z"/><path fill="#020401" d="M1000 2640h40v40h-40z"/><path fill="#cbdbff" d="M1040 2640h40v40h-40zm40 0h40v40h-40zm40 0h40v40h-40zm40 0h40v40h-40zm40 0h40v40h-40zm40 0h40v40h-40z"/><path fill="#fff" d="M1280 2640h40v40h-40zm40 0h40v40h-40zm40 0h40v40h-40zm40 0h40v40h-40zm40 0h40v40h-40zm40 0h40v40h-40zm40 0h40v40h-40zm40 0h40v40h-40zm40 0h40v40h-40zm40 0h40v40h-40zm40 0h40v40h-40zm40 0h40v40h-40zm40 0h40v40h-40zm40 0h40v40h-40zm40 0h40v40h-40zm40 0h40v40h-40zm40 0h40v40h-40zm40 0h40v40h-40zm40 0h40v40h-40zm40 0h40v40h-40z"/><path fill="#e4e4e4" d="M2080 2640h40v40h-40zm40 0h40v40h-40z"/><path fill="#fff" d="M2160 2640h40v40h-40zm40 0h40v40h-40zm40 0h40v40h-40zm40 0h40v40h-40zm40 0h40v40h-40zm40 0h40v40h-40zm40 0h40v40h-40zm40 0h40v40h-40z"/><path fill="#cbdbff" d="M2480 2640h40v40h-40zm40 0h40v40h-40zm40 0h40v40h-40zm40 0h40v40h-40z"/><path fill="#767c7f" d="M2640 2640h40v40h-40z"/><path fill="#020401" d="M2680 2640h40v40h-40z"/><path fill="#767c7f" d="M960 2680h40v40h-40z"/><path fill="#020401" d="M1000 2680h40v40h-40z"/><path fill="#cbdbff" d="M1160 2680h40v40h-40zm40 0h40v40h-40zm40 0h40v40h-40z"/><path fill="#fff" d="M1280 2680h40v40h-40zm40 0h40v40h-40zm40 0h40v40h-40zm40 0h40v40h-40zm40 0h40v40h-40zm40 0h40v40h-40zm40 0h40v40h-40zm40 0h40v40h-40zm40 0h40v40h-40zm40 0h40v40h-40zm40 0h40v40h-40zm40 0h40v40h-40zm40 0h40v40h-40zm40 0h40v40h-40zm40 0h40v40h-40zm40 0h40v40h-40zm40 0h40v40h-40zm40 0h40v40h-40zm40 0h40v40h-40zm40 0h40v40h-40zm40 0h40v40h-40zm40 0h40v40h-40zm40 0h40v40h-40zm40 0h40v40h-40zm40 0h40v40h-40zm40 0h40v40h-40zm40 0h40v40h-40zm40 0h40v40h-40zm40 0h40v40h-40z"/><path fill="#cbdbff" d="M2440 2680h40v40h-40zm40 0h40v40h-40zm40 0h40v40h-40z"/><path fill="#767c7f" d="M2600 2680h40v40h-40zm40 0h40v40h-40z"/><path fill="#020401" d="M2680 2680h40v40h-40zm-1640 40h40v40h-40zm40 0h40v40h-40zm40 0h40v40h-40z"/><path fill="#767c7f" d="M1160 2720h40v40h-40zm40 0h40v40h-40z"/><path fill="#cbdbff" d="M1240 2720h40v40h-40zm40 0h40v40h-40zm40 0h40v40h-40zm40 0h40v40h-40zm40 0h40v40h-40z"/><path fill="#fff" d="M1440 2720h40v40h-40zm40 0h40v40h-40zm40 0h40v40h-40zm40 0h40v40h-40zm40 0h40v40h-40zm40 0h40v40h-40zm40 0h40v40h-40zm40 0h40v40h-40zm40 0h40v40h-40zm40 0h40v40h-40zm40 0h40v40h-40zm40 0h40v40h-40zm40 0h40v40h-40zm40 0h40v40h-40zm40 0h40v40h-40zm40 0h40v40h-40zm40 0h40v40h-40zm40 0h40v40h-40zm40 0h40v40h-40zm40 0h40v40h-40zm40 0h40v40h-40zm40 0h40v40h-40z"/><path fill="#cbdbff" d="M2320 2720h40v40h-40zm40 0h40v40h-40zm40 0h40v40h-40zm40 0h40v40h-40z"/><path fill="#767c7f" d="M2480 2720h40v40h-40zm40 0h40v40h-40z"/><path fill="#020401" d="M2560 2720h40v40h-40zm40 0h40v40h-40zm40 0h40v40h-40zm-1480 40h40v40h-40zm40 0h40v40h-40zm40 0h40v40h-40z"/><path fill="#767c7f" d="M1280 2760h40v40h-40z"/><path fill="#cbdbff" d="M1320 2760h40v40h-40zm40 0h40v40h-40zm40 0h40v40h-40z"/><path fill="#fff" d="M1440 2760h40v40h-40zm40 0h40v40h-40zm40 0h40v40h-40zm40 0h40v40h-40zm40 0h40v40h-40zm40 0h40v40h-40zm40 0h40v40h-40zm40 0h40v40h-40zm40 0h40v40h-40zm40 0h40v40h-40zm40 0h40v40h-40zm40 0h40v40h-40zm40 0h40v40h-40zm40 0h40v40h-40zm40 0h40v40h-40zm40 0h40v40h-40zm40 0h40v40h-40zm40 0h40v40h-40zm40 0h40v40h-40z"/><path fill="#cbdbff" d="M2200 2760h40v40h-40zm40 0h40v40h-40zm40 0h40v40h-40zm40 0h40v40h-40zm40 0h40v40h-40zm40 0h40v40h-40z"/><path fill="#767c7f" d="M2440 2760h40v40h-40z"/><path fill="#020401" d="M2480 2760h40v40h-40zm40 0h40v40h-40zm-1360 40h40v40h-40z"/><path fill="#fff" d="M1200 2800h40v40h-40zm40 0h40v40h-40z"/><path fill="#020401" d="M1280 2800h40v40h-40zm40 0h40v40h-40z"/><path fill="#767c7f" d="M1360 2800h40v40h-40z"/><path fill="#cbdbff" d="M1400 2800h40v40h-40zm40 0h40v40h-40zm40 0h40v40h-40z"/><path fill="#fff" d="M1520 2800h40v40h-40zm40 0h40v40h-40zm40 0h40v40h-40zm40 0h40v40h-40zm40 0h40v40h-40zm40 0h40v40h-40zm40 0h40v40h-40zm40 0h40v40h-40zm40 0h40v40h-40zm40 0h40v40h-40zm40 0h40v40h-40zm40 0h40v40h-40zm40 0h40v40h-40zm40 0h40v40h-40z"/><path fill="#cbdbff" d="M2080 2800h40v40h-40zm40 0h40v40h-40zm40 0h40v40h-40zm40 0h40v40h-40zm40 0h40v40h-40zm40 0h40v40h-40zm40 0h40v40h-40zm40 0h40v40h-40z"/><path fill="#020401" d="M2400 2800h40v40h-40z"/><path fill="#767c7f" d="M2440 2800h40v40h-40z"/><path fill="#fff" d="M2480 2800h40v40h-40z"/><path fill="#020401" d="M2520 2800h40v40h-40zm-1360 40h40v40h-40z"/><path fill="#767c7f" d="M1200 2840h40v40h-40z"/><path fill="#fff" d="M1240 2840h40v40h-40zm40 0h40v40h-40zm40 0h40v40h-40z"/><path fill="#767c7f" d="M1360 2840h40v40h-40zm40 0h40v40h-40z"/><path fill="#cbdbff" d="M1440 2840h40v40h-40zm40 0h40v40h-40zm40 0h40v40h-40z"/><path fill="#fff" d="M1560 2840h40v40h-40zm40 0h40v40h-40z"/><path fill="#cbdbff" d="M1640 2840h40v40h-40zm40 0h40v40h-40zm40 0h40v40h-40zm40 0h40v40h-40z"/><path fill="#fff" d="M1800 2840h40v40h-40zm40 0h40v40h-40zm40 0h40v40h-40z"/><path fill="#cbdbff" d="M1920 2840h40v40h-40zm40 0h40v40h-40zm40 0h40v40h-40zm40 0h40v40h-40zm40 0h40v40h-40zm40 0h40v40h-40zm40 0h40v40h-40zm40 0h40v40h-40zm40 0h40v40h-40zm40 0h40v40h-40z"/><path fill="#767c7f" d="M2320 2840h40v40h-40z"/><path fill="#020401" d="M2360 2840h40v40h-40zm40 0h40v40h-40z"/><path fill="#fff" d="M2440 2840h40v40h-40zm40 0h40v40h-40z"/><path fill="#020401" d="M2520 2840h40v40h-40zm-1360 40h40v40h-40z"/><path fill="#767c7f" d="M1200 2880h40v40h-40z"/><path fill="#fff" d="M1240 2880h40v40h-40zm40 0h40v40h-40zm40 0h40v40h-40zm40 0h40v40h-40z"/><path fill="#020401" d="M1400 2880h40v40h-40zm40 0h40v40h-40z"/><path fill="#767c7f" d="M1480 2880h40v40h-40zm40 0h40v40h-40z"/><path fill="#cbdbff" d="M1560 2880h40v40h-40zm40 0h40v40h-40zm40 0h40v40h-40z"/><path fill="#767c7f" d="M1680 2880h40v40h-40zm40 0h40v40h-40z"/><path fill="#cbdbff" d="M1760 2880h40v40h-40zm40 0h40v40h-40zm40 0h40v40h-40zm40 0h40v40h-40zm40 0h40v40h-40z"/><path fill="#767c7f" d="M1960 2880h40v40h-40zm40 0h40v40h-40zm40 0h40v40h-40z"/><path fill="#cbdbff" d="M2080 2880h40v40h-40zm40 0h40v40h-40zm40 0h40v40h-40z"/><path fill="#767c7f" d="M2200 2880h40v40h-40z"/><path fill="#020401" d="M2240 2880h40v40h-40zm40 0h40v40h-40zm40 0h40v40h-40z"/><path fill="#767c7f" d="M2360 2880h40v40h-40z"/><path fill="#fff" d="M2400 2880h40v40h-40zm40 0h40v40h-40z"/><path fill="#767c7f" d="M2480 2880h40v40h-40z"/><path fill="#020401" d="M2520 2880h40v40h-40zm-1320 40h40v40h-40zm40 0h40v40h-40z"/><path fill="#fff" d="M1280 2920h40v40h-40zm40 0h40v40h-40zm40 0h40v40h-40zm40 0h40v40h-40zm40 0h40v40h-40z"/><path fill="#767c7f" d="M1480 2920h40v40h-40z"/><path fill="#020401" d="M1520 2920h40v40h-40zm40 0h40v40h-40z"/><path fill="#cbdbff" d="M1600 2920h40v40h-40z"/><path fill="#020401" d="M1640 2920h40v40h-40zm40 0h40v40h-40zm40 0h40v40h-40zm40 0h40v40h-40z"/><path fill="#cbdbff" d="M1800 2920h40v40h-40zm40 0h40v40h-40z"/><path fill="#020401" d="M1880 2920h40v40h-40zm40 0h40v40h-40zm40 0h40v40h-40zm40 0h40v40h-40zm40 0h40v40h-40z"/><path fill="#767c7f" d="M2080 2920h40v40h-40z"/><path fill="#020401" d="M2120 2920h40v40h-40zm40 0h40v40h-40zm40 0h40v40h-40z"/><path fill="#fff" d="M2240 2920h40v40h-40zm40 0h40v40h-40zm40 0h40v40h-40zm40 0h40v40h-40z"/><path fill="#e4e4e4" d="M2400 2920h40v40h-40z"/><path fill="#fff" d="M2440 2920h40v40h-40z"/><path fill="#020401" d="M2480 2920h40v40h-40zm-1280 40h40v40h-40zm40 0h40v40h-40z"/><path fill="#767c7f" d="M1280 2960h40v40h-40z"/><path fill="#fff" d="M1320 2960h40v40h-40z"/><path fill="#e4e4e4" d="M1360 2960h40v40h-40zm40 0h40v40h-40z"/><path fill="#fff" d="M1440 2960h40v40h-40zm40 0h40v40h-40zm40 0h40v40h-40zm40 0h40v40h-40z"/><path fill="#020401" d="M1600 2960h40v40h-40z"/><path fill="#fff" d="M1640 2960h40v40h-40zm40 0h40v40h-40zm40 0h40v40h-40z"/><path fill="#767c7f" d="M1760 2960h40v40h-40z"/><path fill="#020401" d="M1800 2960h40v40h-40zm40 0h40v40h-40zm40 0h40v40h-40z"/><path fill="#fff" d="M1920 2960h40v40h-40zm40 0h40v40h-40zm40 0h40v40h-40zm40 0h40v40h-40z"/><path fill="#020401" d="M2080 2960h40v40h-40z"/><path fill="#767c7f" d="M2120 2960h40v40h-40z"/><path fill="#fff" d="M2160 2960h40v40h-40zm40 0h40v40h-40zm40 0h40v40h-40z"/><path fill="#e4e4e4" d="M2280 2960h40v40h-40zm40 0h40v40h-40zm40 0h40v40h-40zm40 0h40v40h-40z"/><path fill="#fff" d="M2440 2960h40v40h-40z"/><path fill="#020401" d="M2480 2960h40v40h-40zm-1280 40h40v40h-40zm40 0h40v40h-40z"/><path fill="#767c7f" d="M1280 3000h40v40h-40z"/><path fill="#fff" d="M1320 3000h40v40h-40zm40 0h40v40h-40z"/><path fill="#e4e4e4" d="M1400 3000h40v40h-40zm40 0h40v40h-40zm40 0h40v40h-40z"/><path fill="#fff" d="M1520 3000h40v40h-40zm40 0h40v40h-40zm40 0h40v40h-40zm40 0h40v40h-40zm40 0h40v40h-40zm40 0h40v40h-40zm40 0h40v40h-40zm40 0h40v40h-40zm40 0h40v40h-40zm40 0h40v40h-40zm40 0h40v40h-40zm40 0h40v40h-40zm40 0h40v40h-40zm40 0h40v40h-40zm40 0h40v40h-40zm40 0h40v40h-40zm40 0h40v40h-40zm40 0h40v40h-40zm40 0h40v40h-40zm40 0h40v40h-40zm40 0h40v40h-40zm40 0h40v40h-40zm40 0h40v40h-40z"/><path fill="#767c7f" d="M2440 3000h40v40h-40z"/><path fill="#020401" d="M2480 3000h40v40h-40zm-1200 40h40v40h-40zm40 0h40v40h-40z"/><path fill="#767c7f" d="M1360 3040h40v40h-40zm40 0h40v40h-40z"/><path fill="#fff" d="M1440 3040h40v40h-40zm40 0h40v40h-40zm40 0h40v40h-40zm40 0h40v40h-40z"/><path fill="#e4e4e4" d="M1600 3040h40v40h-40zm40 0h40v40h-40z"/><path fill="#fff" d="M1680 3040h40v40h-40zm40 0h40v40h-40zm40 0h40v40h-40zm40 0h40v40h-40zm40 0h40v40h-40zm40 0h40v40h-40zm40 0h40v40h-40zm40 0h40v40h-40zm40 0h40v40h-40z"/><path fill="#e4e4e4" d="M2040 3040h40v40h-40zm40 0h40v40h-40zm40 0h40v40h-40z"/><path fill="#fff" d="M2160 3040h40v40h-40zm40 0h40v40h-40zm40 0h40v40h-40zm40 0h40v40h-40z"/><path fill="#767c7f" d="M2320 3040h40v40h-40z"/><path fill="#020401" d="M2360 3040h40v40h-40zm40 0h40v40h-40z"/><path fill="#767c7f" d="M2440 3040h40v40h-40z"/><path fill="#020401" d="M1360 3080h40v40h-40zm40 0h40v40h-40zm40 0h40v40h-40z"/><path fill="#fff" d="M1480 3080h40v40h-40zm40 0h40v40h-40zm40 0h40v40h-40zm40 0h40v40h-40zm40 0h40v40h-40zm40 0h40v40h-40zm40 0h40v40h-40zm40 0h40v40h-40zm40 0h40v40h-40zm40 0h40v40h-40z"/><path fill="#e4e4e4" d="M1880 3080h40v40h-40zm40 0h40v40h-40zm40 0h40v40h-40zm40 0h40v40h-40zm40 0h40v40h-40z"/><path fill="#fff" d="M2080 3080h40v40h-40zm40 0h40v40h-40zm40 0h40v40h-40zm40 0h40v40h-40z"/><path fill="#020401" d="M2240 3080h40v40h-40zm40 0h40v40h-40zm40 0h40v40h-40z"/><path fill="#767c7f" d="M1400 3120h40v40h-40zm40 0h40v40h-40zm40 0h40v40h-40zm40 0h40v40h-40z"/><path fill="#fff" d="M1560 3120h40v40h-40zm40 0h40v40h-40zm40 0h40v40h-40zm40 0h40v40h-40zm40 0h40v40h-40zm40 0h40v40h-40zm40 0h40v40h-40zm40 0h40v40h-40zm40 0h40v40h-40zm40 0h40v40h-40zm40 0h40v40h-40zm40 0h40v40h-40zm40 0h40v40h-40zm40 0h40v40h-40zm40 0h40v40h-40z"/><path fill="#767c7f" d="M2160 3120h40v40h-40zm40 0h40v40h-40zm40 0h40v40h-40zm40 0h40v40h-40z"/><path fill="#020401" d="M1480 3160h40v40h-40zm40 0h40v40h-40zm40 0h40v40h-40zm40 0h40v40h-40zm40 0h40v40h-40zm40 0h40v40h-40zm40 0h40v40h-40zm40 0h40v40h-40zm40 0h40v40h-40zm40 0h40v40h-40zm40 0h40v40h-40zm40 0h40v40h-40zm40 0h40v40h-40zm40 0h40v40h-40zm40 0h40v40h-40zm40 0h40v40h-40zm40 0h40v40h-40zm40 0h40v40h-40zm40 0h40v40h-40z"/></svg>